<?xml version="1.0" standalone="no"?>
<!DOCTYPE svg PUBLIC "-//W3C//DTD SVG 1.1//EN" "http://www.w3.org/Graphics/SVG/1.1/DTD/svg11.dtd" >
<svg xmlns="http://www.w3.org/2000/svg" xmlns:xlink="http://www.w3.org/1999/xlink" version="1.1">
<metadata>
Created by FontForge 20170731 at Wed May  8 14:51:00 2019
 By Aleksey,,,
Copyright (c) 2015 by Process Type Foundry. All rights reserved.
</metadata>
<defs>
<font id="ScandiaWeb-BoldItalic" horiz-adv-x="658" >
  <font-face 
    font-family="Scandia Web Bold Italic"
    font-weight="700"
    font-style="italic"
    font-stretch="normal"
    units-per-em="1000"
    panose-1="2 11 6 3 5 0 0 2 0 4"
    ascent="750"
    descent="-250"
    x-height="504"
    cap-height="700"
    bbox="-107 -220 1122 917"
    underline-thickness="92"
    underline-position="-192"
    unicode-range="U+0020-20AC"
  />
<missing-glyph horiz-adv-x="706" 
d="M105 700h546v-700h-546v700zM632 18v664h-508v-664h508zM432 350l84 -83l-54 -54l-84 84l-83 -84l-54 54l84 83l-84 85l53 53l84 -84l85 84l53 -53z" />
    <glyph glyph-name="fi" unicode="fi" horiz-adv-x="648" 
d="M430 595q-7 4 -20 7t-27 3q-29 0 -44.5 -14t-21.5 -46l-8 -41h97l-26 -131h-98l-74 -373h-164l74 373h-74l26 131h75l11 55q9 46 23.5 80t38 57t57.5 34.5t82 11.5q29 0 54.5 -4.5t45.5 -13.5zM374 0l100 504h164l-100 -504h-164zM681 662q0 -20 -7.5 -38t-21 -32
t-32 -22.5t-40.5 -8.5q-36 0 -62 23t-26 61q0 19 7 37t20 32t32.5 23t43.5 9q35 0 60.5 -22.5t25.5 -61.5z" />
    <glyph glyph-name="fl" unicode="fl" horiz-adv-x="648" 
d="M438 594q-9 4 -23.5 7.5t-31.5 3.5q-29 0 -44.5 -14t-21.5 -46l-8 -41h105l-26 -131h-106l-74 -373h-164l74 373h-74l26 131h75l11 55q9 46 23.5 80t38 57t57.5 34.5t82 11.5q32 0 61.5 -5.5t46.5 -13.5zM379 0l146 730h164l-146 -730h-164z" />
    <glyph glyph-name=".notdef" horiz-adv-x="706" 
d="M105 700h546v-700h-546v700zM632 18v664h-508v-664h508zM432 350l84 -83l-54 -54l-84 84l-83 -84l-54 54l84 83l-84 85l53 53l84 -84l85 84l53 -53z" />
    <glyph glyph-name=".null" horiz-adv-x="0" 
 />
    <glyph glyph-name="nonmarkingreturn" horiz-adv-x="333" 
 />
    <glyph glyph-name="space" unicode=" " horiz-adv-x="240" 
 />
    <glyph glyph-name="exclam" unicode="!" horiz-adv-x="316" 
d="M209 235h-100l45 465h196zM40 75q0 22 7.5 41.5t21 34.5t33 23.5t42.5 8.5q38 0 64.5 -23t26.5 -63q0 -21 -7.5 -40t-21.5 -34t-33.5 -24t-42.5 -9q-38 0 -64 23t-26 62z" />
    <glyph glyph-name="quotedbl" unicode="&#x22;" horiz-adv-x="525" 
d="M162 700h150l-57 -288h-150zM401 700h150l-57 -288h-150z" />
    <glyph glyph-name="numbersign" unicode="#" horiz-adv-x="711" 
d="M651 541h83l-24 -117h-102l-55 -148h101l-24 -117h-120l-58 -159h-128l58 159h-145l-58 -159h-128l58 159h-83l24 117h102l55 148h-101l24 117h120l59 159h128l-59 -159h145l59 159h128zM280 276h145l55 148h-145z" />
    <glyph glyph-name="dollar" unicode="$" horiz-adv-x="529" 
d="M489 241q0 -41 -13 -78.5t-36.5 -68.5t-57 -53.5t-74.5 -32.5l-22 -118h-162l25 125q-53 20 -82 63.5t-29 109.5v12q0 5 1 12h149v-10q0 -32 15 -51t50 -19t54 23t19 56q0 24 -19 44t-64 41q-76 35 -110.5 80.5t-34.5 101.5q0 39 12 75.5t35 65.5t56 49t74 28l23 114h161
l-28 -134q41 -21 64.5 -59t23.5 -93v-17q0 -8 -2 -17h-150q2 10 2 21q0 25 -12 41t-41 16q-27 0 -41.5 -19t-14.5 -46q0 -10 3 -19t11 -18t23 -18.5t38 -20.5q34 -16 62 -34t48.5 -40t32 -49.5t11.5 -62.5z" />
    <glyph glyph-name="percent" unicode="%" horiz-adv-x="1012" 
d="M730 700h152l-558 -700h-152zM479 537q0 -42 -17 -79t-46 -65t-68 -44.5t-84 -16.5q-42 0 -77 12t-60.5 34.5t-40 54.5t-14.5 72q0 41 16 78.5t44.5 65.5t67.5 44.5t86 16.5q37 0 71.5 -11.5t61.5 -33.5t43.5 -54.5t16.5 -73.5zM269 433q41 0 66.5 29.5t25.5 69.5
q0 33 -22.5 55t-56.5 22q-42 0 -67 -28t-25 -73q0 -33 21 -54t58 -21zM986 195q0 -42 -17 -79t-46 -65t-68 -44.5t-84 -16.5q-42 0 -77 12t-60.5 34.5t-40 54.5t-14.5 72q0 41 16 78.5t44.5 65.5t67.5 44.5t86 16.5q37 0 71.5 -11.5t61.5 -33.5t43.5 -54.5t16.5 -73.5z
M776 91q41 0 66.5 29.5t25.5 69.5q0 33 -22.5 55t-56.5 22q-42 0 -67 -28t-25 -73q0 -33 21 -54t58 -21z" />
    <glyph glyph-name="ampersand" unicode="&#x26;" horiz-adv-x="765" 
d="M518 55q-87 -69 -211 -69q-50 0 -95 15t-79 43.5t-54 69t-20 91.5t15.5 91t42 70.5t62.5 52t78 35.5l-156 240l1 6h555l-27 -136h-267l175 -273l75 110l115 -76l-112 -156l108 -169h-170zM328 112q38 0 67 14t52 38l-120 183q-45 -17 -76 -49t-31 -84q0 -45 26 -73.5
t82 -28.5z" />
    <glyph glyph-name="quotesingle" unicode="'" horiz-adv-x="286" 
d="M162 700h150l-57 -288h-150z" />
    <glyph glyph-name="parenleft" unicode="(" horiz-adv-x="387" 
d="M502 782q-56 -70 -104.5 -135.5t-83.5 -134t-55 -144t-20 -163.5q0 -84 22 -170.5t53 -168.5h-159q-38 84 -59.5 173t-21.5 175q0 82 19 160.5t53.5 150.5t82 136.5t104.5 120.5h169z" />
    <glyph glyph-name="parenright" unicode=")" horiz-adv-x="387" 
d="M-73 -134q56 70 104 135.5t83.5 134t55.5 143.5t20 164q0 84 -22 170.5t-53 168.5h159q38 -84 59.5 -173t21.5 -175q0 -83 -19 -161t-53.5 -150t-82 -136.5t-104.5 -120.5h-169z" />
    <glyph glyph-name="asterisk" unicode="*" horiz-adv-x="471" 
d="M318 462l-24 -121h-72l24 119l-108 -58l-30 56l118 64l-106 68l41 57l108 -72l25 125h72l-25 -123l106 60l32 -57l-123 -65l105 -63l-39 -57z" />
    <glyph glyph-name="plus" unicode="+" horiz-adv-x="596" 
d="M390 289l-35 -175h-158l35 175h-157l29 142h156l35 175h158l-35 -175h156l-29 -142h-155z" />
    <glyph glyph-name="comma" unicode="," horiz-adv-x="327" 
d="M72 150h199l-179 -297h-146z" />
    <glyph glyph-name="hyphen" unicode="-" horiz-adv-x="420" 
d="M47 211l29 146h320l-29 -146h-320z" />
    <glyph glyph-name="hyphen" unicode="&#xad;" horiz-adv-x="420" 
d="M47 211l29 146h320l-29 -146h-320z" />
    <glyph glyph-name="period" unicode="." horiz-adv-x="284" 
d="M16 75q0 22 7.5 41.5t21 34.5t33 23.5t42.5 8.5q38 0 64.5 -23t26.5 -63q0 -21 -7.5 -40t-21.5 -34t-33.5 -24t-42.5 -9q-38 0 -64 23t-26 62z" />
    <glyph glyph-name="slash" unicode="/" horiz-adv-x="582" 
d="M490 750h171l-532 -855h-171z" />
    <glyph glyph-name="zero" unicode="0" horiz-adv-x="636" 
d="M585 230q-23 -116 -97 -180t-182 -64q-58 0 -105 17.5t-80 49t-51 75t-18 95.5q0 16 2 32.5t5 31.5l38 188q24 118 95.5 178.5t179.5 60.5q57 0 104.5 -16.5t81 -47t52.5 -73.5t19 -97q0 -16 -2 -33.5t-5 -31.5zM462 446q3 15 3 30q0 41 -23.5 69t-73.5 28q-48 0 -73 -29
t-35 -78l-41 -206q-2 -8 -3 -17.5t-1 -17.5q0 -42 23 -70t73 -28q47 0 73 29t36 79z" />
    <glyph glyph-name="one" unicode="1" horiz-adv-x="418" 
d="M435 705h4l-141 -705h-166l103 515l-165 -38l30 150z" />
    <glyph glyph-name="two" unicode="2" horiz-adv-x="574" 
d="M358 400q21 21 41.5 46t20.5 57t-21 49.5t-54 17.5q-42 0 -63 -25.5t-29 -64.5h-163q9 54 31.5 97.5t56.5 73.5t77.5 46.5t95.5 16.5q45 0 87.5 -12.5t75 -37.5t52 -62.5t19.5 -87.5q0 -36 -9.5 -66.5t-25.5 -57t-37.5 -50.5t-45.5 -46l-158 -150h203l-28 -144h-509l1 8z
" />
    <glyph glyph-name="three" unicode="3" horiz-adv-x="600" 
d="M416 421q31 -6 58 -21t46.5 -37t30.5 -51.5t11 -63.5q0 -55 -20.5 -102.5t-57 -83t-87 -56t-111.5 -20.5q-53 0 -97.5 15.5t-76.5 45.5t-50 73.5t-17 99.5h158q1 -42 22.5 -68t70.5 -26q45 0 72.5 28.5t27.5 70.5q0 34 -22.5 55.5t-65.5 21.5h-159v12l188 242h-211
l28 144h474l-1 -8z" />
    <glyph glyph-name="four" unicode="4" horiz-adv-x="621" 
d="M338 146h-341l1 7l311 547h158l-225 -419h123l29 147h153l-29 -147h86l-27 -135h-86l-29 -146h-153z" />
    <glyph glyph-name="five" unicode="5" horiz-adv-x="596" 
d="M295 449h34q109 0 170 -52t61 -146q0 -57 -20.5 -105.5t-57 -84.5t-86 -56t-107.5 -20q-50 0 -93 14t-75 42t-50.5 69.5t-20.5 97.5h159q3 -39 27 -60.5t62 -21.5q24 0 42 8t30 22t18.5 32.5t6.5 38.5q0 37 -27 59.5t-76 22.5h-215l137 391h369l-29 -145h-224z" />
    <glyph glyph-name="six" unicode="6" horiz-adv-x="595" 
d="M40 209q0 58 19.5 106t47.5 86l223 299h187l-192 -255q9 6 26 11t37 5q41 0 75 -15t59 -41t38.5 -61.5t13.5 -77.5q0 -60 -21 -111t-58.5 -88.5t-89 -59t-112.5 -21.5q-56 0 -102 15.5t-80 45t-52.5 70.5t-18.5 92zM410 237q0 47 -27.5 70t-65.5 23q-26 0 -47 -10
t-35.5 -26t-22.5 -37.5t-8 -43.5q0 -39 24 -64t66 -25q27 0 48.5 9t36.5 24.5t23 36t8 43.5z" />
    <glyph glyph-name="seven" unicode="7" horiz-adv-x="529" 
d="M119 700h504l-1 -6l-417 -694h-174l333 554h-274z" />
    <glyph glyph-name="eight" unicode="8" horiz-adv-x="624" 
d="M304 -14q-51 0 -96.5 13t-80 38.5t-55 63t-20.5 86.5q0 75 41 123.5t107 68.5q-28 20 -47.5 52t-19.5 75q0 48 19 86.5t52 65.5t78 41.5t96 14.5q42 0 81.5 -11.5t70.5 -34.5t50 -57.5t19 -79.5q0 -58 -30.5 -104t-84.5 -74q39 -20 64.5 -52.5t25.5 -87.5
q0 -51 -22.5 -93t-60 -71.5t-86.5 -46t-101 -16.5zM215 199q0 -39 25 -62t69 -23q45 0 73.5 29.5t28.5 71.5q0 33 -25.5 56t-66.5 23q-45 0 -74.5 -25t-29.5 -70zM288 496q0 -35 19 -55t52 -20q38 0 61.5 27.5t23.5 65.5q0 31 -18.5 50.5t-55.5 19.5t-59.5 -24.5
t-22.5 -63.5z" />
    <glyph glyph-name="nine" unicode="9" horiz-adv-x="595" 
d="M608 493q0 -58 -19 -107t-48 -87l-223 -299h-187l192 255q-9 -5 -25 -10.5t-35 -5.5q-41 0 -76 15t-60 41t-39 61.5t-14 77.5q0 60 21 111t58 88.5t88.5 59t113.5 21.5q55 0 101.5 -15.5t80.5 -44.5t52.5 -70t18.5 -91zM238 463q0 -47 27.5 -70t65.5 -23q26 0 47 10
t35.5 26t22.5 37t8 44q0 39 -24 64t-66 25q-52 0 -84 -31.5t-32 -81.5z" />
    <glyph glyph-name="colon" unicode=":" horiz-adv-x="284" 
d="M17 75q0 22 7.5 41.5t21 34.5t33 23.5t42.5 8.5q38 0 64.5 -23t26.5 -63q0 -21 -7.5 -40t-21.5 -34t-33.5 -24t-42.5 -9q-38 0 -64 23t-26 62zM72 350q0 22 7.5 41.5t21 34.5t33 23.5t42.5 8.5q38 0 64.5 -23t26.5 -63q0 -21 -7.5 -40t-21.5 -34t-33.5 -24t-42.5 -9
q-38 0 -64 23t-26 62z" />
    <glyph glyph-name="semicolon" unicode=";" horiz-adv-x="332" 
d="M54 150h199l-179 -297h-146zM103 350q0 22 7.5 41.5t21 34.5t33 23.5t42.5 8.5q38 0 64.5 -23t26.5 -63q0 -21 -7.5 -40t-21.5 -34t-33.5 -24t-42.5 -9q-38 0 -64 23t-26 62z" />
    <glyph glyph-name="less" unicode="&#x3c;" horiz-adv-x="565" 
d="M578 616l-34 -167l-210 -94l173 -94l-32 -157l-424 256z" />
    <glyph glyph-name="equal" unicode="=" horiz-adv-x="606" 
d="M111 420l27 134h460l-27 -134h-460zM61 166l26 134h460l-26 -134h-460z" />
    <glyph glyph-name="greater" unicode="&#x3e;" horiz-adv-x="565" 
d="M566 360l-526 -256l34 168l209 94l-172 94l32 156z" />
    <glyph glyph-name="question" unicode="?" horiz-adv-x="512" 
d="M168 224l8 45q5 27 13 46.5t21 36t31 31.5t44 33q12 9 28 18.5t30 22t23.5 27.5t9.5 34q0 26 -16.5 39t-41.5 13q-31 0 -49.5 -19.5t-23.5 -48.5h-161q18 102 82 157t169 55q42 0 79 -13t65 -37.5t44.5 -59t16.5 -77.5q0 -65 -36 -113.5t-103 -95.5q-14 -10 -25.5 -17.5
t-20.5 -16t-15.5 -19.5t-9.5 -26l-3 -15h-159zM136 75q0 22 7.5 41.5t21 34.5t33 23.5t42.5 8.5q38 0 64.5 -23t26.5 -63q0 -21 -7.5 -40t-21.5 -34t-33.5 -24t-42.5 -9q-38 0 -64 23t-26 62z" />
    <glyph glyph-name="at" unicode="@" horiz-adv-x="953" 
d="M738 488l-54 -186q-9 -30 -9 -54q0 -61 57 -61q28 0 47 18t30.5 45.5t16 60t4.5 61.5q0 63 -24 111.5t-65.5 81.5t-97 50t-117.5 17q-81 0 -148 -29.5t-115.5 -81t-75 -120.5t-26.5 -148q0 -67 22.5 -119t65 -88t103.5 -54.5t138 -18.5q57 0 111.5 8t99.5 23l14 -79
q-45 -15 -107.5 -25t-125.5 -10q-78 0 -153.5 21.5t-134 66t-94.5 112.5t-36 161q0 95 34 179t96.5 147t149.5 100t193 37q76 0 146.5 -22.5t124.5 -65.5t86.5 -106t32.5 -145q0 -47 -12 -95t-36.5 -87t-63.5 -64t-93 -25q-50 0 -86.5 24.5t-48.5 70.5q-26 -36 -69.5 -55.5
t-89.5 -19.5q-35 0 -64 12t-50 33t-32.5 49.5t-11.5 62.5q0 43 15 83t42.5 71t66 49.5t84.5 18.5q37 0 74 -17t53 -55l16 57h117zM568 329q0 35 -21.5 57t-57.5 22q-21 0 -38.5 -8.5t-31 -24t-21 -36t-7.5 -44.5q0 -32 17.5 -54t56.5 -22q21 0 39.5 8.5t33 23.5t22.5 35
t8 43z" />
    <glyph glyph-name="A" unicode="A" horiz-adv-x="766" 
d="M509 99h-291l-56 -99h-187l438 700h128l160 -700h-176zM296 238h191l-42 264z" />
    <glyph glyph-name="B" unicode="B" horiz-adv-x="676" 
d="M25 0l140 700h296q40 0 74 -11.5t58.5 -32.5t38.5 -51.5t14 -67.5q0 -36 -11.5 -65t-30.5 -51t-44 -37t-52 -22q62 -12 97 -50.5t35 -100.5q0 -48 -21 -86.5t-56 -66.5t-82.5 -43t-99.5 -15h-356zM251 291l-31 -156h150q44 0 73 22t29 64q0 29 -21 49.5t-63 20.5h-137z
M306 565l-29 -141h106q42 0 69.5 21t27.5 60q0 25 -17 42.5t-47 17.5h-110z" />
    <glyph glyph-name="C" unicode="C" horiz-adv-x="816" 
d="M637 431q-8 29 -24 54.5t-39 44t-53.5 29t-68.5 10.5q-49 0 -90 -19.5t-70 -53.5t-45.5 -79t-16.5 -97q0 -42 12.5 -76.5t37 -59t60 -38.5t81.5 -14q34 0 62.5 8.5t50 22.5t37.5 31.5t27 36.5h173q-15 -50 -48 -94t-80 -78t-106 -53.5t-128 -19.5q-76 0 -140 25
t-110.5 69t-72.5 104t-26 129q0 86 30.5 159.5t84.5 127.5t127.5 84.5t158.5 30.5q64 0 121.5 -19t103 -55t76 -89t41.5 -121h-166z" />
    <glyph glyph-name="D" unicode="D" horiz-adv-x="754" 
d="M401 700q84 0 148 -24t106.5 -65.5t64.5 -98t22 -121.5q0 -94 -34 -167t-96.5 -122.5t-150 -75.5t-195.5 -26h-241l140 700h236zM276 143q63 0 117.5 14t94.5 43.5t62.5 75t22.5 107.5q0 80 -54.5 127t-160.5 47h-53l-83 -414h54z" />
    <glyph glyph-name="E" unicode="E" horiz-adv-x="610" 
d="M544 148l-29 -148h-490l139 700h486l-29 -148h-316l-25 -123h307l-29 -148h-307l-27 -133h320z" />
    <glyph glyph-name="F" unicode="F" horiz-adv-x="578" 
d="M25 0l139 700h474l-29 -148h-304l-27 -135h295l-30 -148h-295l-53 -269h-170z" />
    <glyph glyph-name="G" unicode="G" horiz-adv-x="827" 
d="M805 365q-7 -74 -36.5 -142t-80 -121t-120.5 -84.5t-157 -31.5q-73 0 -137 22t-112 64t-75.5 102.5t-27.5 137.5q0 79 29 152.5t82 129t127 89t163 33.5q65 0 122 -16.5t102 -50t75.5 -85t41.5 -121.5h-163q-19 62 -68.5 94t-116.5 32q-51 0 -93 -21t-71 -56.5t-45 -82.5
t-16 -99q0 -85 49 -134.5t142 -49.5q33 0 61 8.5t50.5 22.5t38.5 32t25 37h-219l28 139h402z" />
    <glyph glyph-name="H" unicode="H" horiz-adv-x="766" 
d="M621 700h170l-140 -700h-170l55 273h-287l-54 -273h-170l140 700h170l-55 -271h287z" />
    <glyph glyph-name="I" unicode="I" horiz-adv-x="320" 
d="M30 0l140 700h170l-140 -700h-170z" />
    <glyph glyph-name="J" unicode="J" horiz-adv-x="633" 
d="M459 554h-322l29 146h492l-99 -496q-9 -47 -32.5 -87t-58.5 -69t-80.5 -45.5t-98.5 -16.5t-97 14.5t-76.5 42.5t-50.5 69.5t-18 96.5q0 8 0.5 17.5t1.5 15.5h158q-1 -5 -1 -9v-9q0 -18 4.5 -35t15 -29.5t27.5 -20t41 -7.5q38 0 64 22.5t34 65.5z" />
    <glyph glyph-name="K" unicode="K" horiz-adv-x="706" 
d="M269 375l293 325h201l-321 -356l195 -344h-193l-180 349l-69 -349h-170l139 700h170z" />
    <glyph glyph-name="L" unicode="L" horiz-adv-x="569" 
d="M224 148h294l-29 -148h-464l139 700h170z" />
    <glyph glyph-name="M" unicode="M" horiz-adv-x="912" 
d="M823 700h114l-140 -700h-164l63 317l-287 -327l-153 344l-67 -334h-164l140 700h114l180 -451z" />
    <glyph glyph-name="N" unicode="N" horiz-adv-x="807" 
d="M662 700h169l-139 -700h-147l-264 437l-87 -437h-169l139 700h147l263 -438z" />
    <glyph glyph-name="O" unicode="O" horiz-adv-x="821" 
d="M458 714q73 0 137.5 -23t112 -65t75 -101.5t27.5 -132.5q0 -79 -29.5 -152t-82.5 -129.5t-126 -90.5t-161 -34q-73 0 -136.5 23.5t-111 66t-75 102.5t-27.5 134q0 82 29 155t81.5 128t125.5 87t161 32zM231 321q0 -88 50.5 -138.5t136.5 -50.5q52 0 93 21t69.5 56t44 80
t15.5 93q0 38 -13.5 72t-38 59.5t-59 40t-77.5 14.5q-50 0 -91 -20.5t-70 -54.5t-44.5 -78.5t-15.5 -93.5z" />
    <glyph glyph-name="P" unicode="P" horiz-adv-x="679" 
d="M25 0l140 700h303q52 0 94 -20t72 -53t46 -76t16 -89q0 -60 -24.5 -111.5t-67 -89t-99 -59t-119.5 -21.5h-155l-36 -181h-170zM306 554l-46 -227h131q27 0 51.5 9t43 25.5t29.5 40t11 51.5q0 41 -25 71t-66 30h-129z" />
    <glyph glyph-name="Q" unicode="Q" horiz-adv-x="821" 
d="M458 714q73 0 137.5 -23t112 -65t75 -101.5t27.5 -132.5q0 -91 -39 -174t-108 -141l76 -130h-176l-33 57q-8 -3 -21.5 -6t-30 -6t-34 -4.5t-33.5 -1.5q-73 0 -136.5 23.5t-111 66t-75 102.5t-27.5 134q0 82 29 155t81.5 128t125.5 87t161 32zM231 321q0 -88 50.5 -138.5
t136.5 -50.5q18 0 35 3l-77 132h178l30 -53q27 35 41.5 78t14.5 90q0 38 -13.5 72t-38 59.5t-59 40t-77.5 14.5q-50 0 -91 -20.5t-70 -54.5t-44.5 -78.5t-15.5 -93.5z" />
    <glyph glyph-name="R" unicode="R" horiz-adv-x="721" 
d="M25 0l140 700h306q52 0 95 -19t74 -51t48 -75t17 -91q0 -47 -15.5 -88.5t-42.5 -75t-64.5 -59t-81.5 -39.5l151 -202h-219l-131 185h-70l-37 -185h-170zM305 554l-44 -223h136q27 0 52 9t44 25t30.5 39t11.5 51q0 41 -28 70t-69 29h-133z" />
    <glyph glyph-name="S" unicode="S" horiz-adv-x="585" 
d="M551 242q0 -56 -21 -103t-58 -81t-86 -53t-105 -19q-57 0 -102.5 15.5t-77 46t-47.5 75.5t-12 104h154q-4 -44 18 -75t72 -31q39 0 66.5 23t27.5 65q0 46 -54 66l-87 33q-62 23 -100.5 65.5t-38.5 113.5q0 49 18 91t51 72t78.5 47t101.5 17q51 0 93 -15t71.5 -44
t44.5 -71t12 -96h-153q3 36 -15.5 63.5t-60.5 27.5q-31 0 -52 -17.5t-21 -51.5q0 -24 17 -38t43 -25l83 -33q68 -27 104 -66.5t36 -105.5z" />
    <glyph glyph-name="T" unicode="T" horiz-adv-x="624" 
d="M127 700h558l-29 -148h-194l-110 -552h-170l110 552h-194z" />
    <glyph glyph-name="U" unicode="U" horiz-adv-x="751" 
d="M367 -14q-62 0 -116 18t-94 52t-62.5 83t-22.5 111q0 36 7 71l76 379h170l-80 -398q-5 -25 -5 -44q0 -57 33.5 -91t99.5 -34q61 0 98.5 38t49.5 100l86 429h170l-89 -443q-13 -63 -42 -113t-70.5 -85.5t-94.5 -54t-114 -18.5z" />
    <glyph glyph-name="V" unicode="V" horiz-adv-x="693" 
d="M370 0h-129l-138 700h171l77 -459l248 459h184z" />
    <glyph glyph-name="W" unicode="W" horiz-adv-x="1029" 
d="M736 274l202 426h174l-361 -700h-123l-64 468l-255 -468h-123l-84 700h174l32 -422l230 422h126z" />
    <glyph glyph-name="X" unicode="X" horiz-adv-x="694" 
d="M464 349l168 -349h-173l-104 224l-182 -224h-199l308 369l-157 331h174l93 -214l172 214h195z" />
    <glyph glyph-name="Y" unicode="Y" horiz-adv-x="665" 
d="M422 236l-47 -236h-170l51 255l-154 445h174l95 -298l191 298h191z" />
    <glyph glyph-name="Z" unicode="Z" horiz-adv-x="630" 
d="M159 700h521l-1 -8l-390 -546h279l-29 -146h-538l1 8l387 546h-259z" />
    <glyph glyph-name="bracketleft" unicode="[" horiz-adv-x="410" 
d="M8 -134l183 916h305l-28 -138h-141l-128 -640h141l-27 -138h-305z" />
    <glyph glyph-name="backslash" unicode="\" horiz-adv-x="582" 
d="M484 -105h-156l-192 855h156z" />
    <glyph glyph-name="bracketright" unicode="]" horiz-adv-x="410" 
d="M-46 -134l26 138h141l128 640h-141l28 138h305l-183 -916h-304z" />
    <glyph glyph-name="asciicircum" unicode="^" horiz-adv-x="523" 
d="M525 410h-157l-46 93l-79 -93h-172l285 300z" />
    <glyph glyph-name="underscore" unicode="_" horiz-adv-x="545" 
d="M-75 -146l19 92h546l-19 -92h-546z" />
    <glyph glyph-name="grave" unicode="`" horiz-adv-x="411" 
d="M256 564l-96 156h211l42 -156h-157z" />
    <glyph glyph-name="a" unicode="a" 
d="M654 504l-101 -504h-160l14 73q-18 -35 -59.5 -60t-93.5 -25q-50 0 -91 18t-70.5 49.5t-45.5 74.5t-16 92q0 61 20.5 114.5t57 93.5t87.5 63t111 23q33 0 61 -8.5t50 -22t37 -30t23 -33.5l16 82h160zM328 381q-32 0 -56.5 -12t-41.5 -32.5t-26 -46.5t-9 -54q0 -51 29 -82
t81 -31q31 0 55.5 11.5t41.5 32t26.5 47t9.5 56.5q0 52 -31 81.5t-79 29.5z" />
    <glyph glyph-name="b" unicode="b" 
d="M15 0l146 730h164l-60 -299q18 35 58 60t92 25q50 0 91 -18t70.5 -49.5t45.5 -74.5t16 -92q0 -61 -20.5 -114.5t-57 -93.5t-87.5 -63t-111 -23q-33 0 -61 8.5t-50.5 22t-38 30t-22.5 33.5l-17 -82h-158zM341 123q31 0 56 12t42 32.5t26 46.5t9 54q0 51 -30 82t-80 31
q-31 0 -55.5 -11.5t-42 -32t-26.5 -47t-9 -56.5q0 -52 31 -81.5t79 -29.5z" />
    <glyph glyph-name="c" unicode="c" horiz-adv-x="615" 
d="M325 516q50 0 95 -13t80 -40t58 -68t29 -97h-156q-11 37 -38 59.5t-71 22.5q-29 0 -52.5 -11.5t-40.5 -31t-26.5 -47t-9.5 -58.5q0 -51 27.5 -79.5t80.5 -28.5q40 0 66.5 17.5t40.5 41.5h163q-15 -43 -42 -78.5t-63 -61.5t-80 -40.5t-92 -14.5q-54 0 -102 15.5t-84 45.5
t-57 73.5t-21 100.5q0 60 21.5 113.5t60 93.5t93 63t120.5 23z" />
    <glyph glyph-name="d" unicode="d" 
d="M393 0l14 73q-18 -35 -59.5 -60t-93.5 -25q-50 0 -91 18t-70.5 49.5t-45.5 74.5t-16 92q0 61 20.5 114.5t57 93.5t87.5 63t111 23q33 0 60 -8.5t48 -22t35 -30.5t22 -34l63 309h164l-146 -730h-160zM328 381q-32 0 -56.5 -12t-41.5 -32.5t-26 -46.5t-9 -54q0 -51 29 -82
t81 -31q31 0 55.5 11.5t41.5 32t26.5 47t9.5 56.5q0 52 -31 81.5t-79 29.5z" />
    <glyph glyph-name="e" unicode="e" horiz-adv-x="598" 
d="M186 204q2 -45 30.5 -71t79.5 -26q30 0 55.5 11t42.5 29h158q-16 -34 -42 -63t-59.5 -50.5t-74.5 -33.5t-88 -12q-55 0 -102 15.5t-81.5 45.5t-54.5 73t-20 97q0 62 20 116.5t57.5 94.5t91 63t120.5 23q52 0 98 -16t80.5 -46.5t54 -74t19.5 -98.5q0 -15 -2 -37.5
t-7 -39.5h-376zM315 403q-48 0 -79.5 -28t-39.5 -76h223q1 45 -27.5 74.5t-76.5 29.5z" />
    <glyph glyph-name="f" unicode="f" horiz-adv-x="364" 
d="M438 594q-9 4 -23.5 7.5t-31.5 3.5q-29 0 -44.5 -14t-21.5 -46l-8 -41h105l-26 -131h-106l-74 -373h-164l74 373h-74l26 131h75l11 55q9 46 23.5 80t38 57t57.5 34.5t82 11.5q32 0 61.5 -5.5t46.5 -13.5z" />
    <glyph glyph-name="g" unicode="g" horiz-adv-x="652" 
d="M301 516q59 0 102.5 -23.5t66.5 -70.5l16 82h162l-105 -525q-9 -46 -35.5 -83t-64.5 -62.5t-85.5 -39.5t-99.5 -14q-48 0 -93 11t-82 34.5t-63.5 60t-35.5 87.5h159q11 -35 44.5 -50.5t73.5 -15.5q44 0 77.5 22.5t43.5 70.5l16 80q-10 -13 -26 -25t-35.5 -21.5t-41 -15.5
t-42.5 -6q-49 0 -89.5 17t-70 47t-46 70.5t-16.5 87.5q0 55 19.5 106t54.5 90t85 62.5t111 23.5zM194 245q0 -51 31.5 -77.5t78.5 -26.5q27 0 51 10.5t42 28.5t28 42t10 51q0 25 -9.5 45t-25 33t-36.5 20t-44 7q-29 0 -52 -10.5t-39.5 -28.5t-25.5 -42.5t-9 -51.5z" />
    <glyph glyph-name="h" unicode="h" horiz-adv-x="602" 
d="M179 0h-164l146 730h164l-58 -290q22 37 59 56.5t77 19.5q82 0 123 -45.5t41 -117.5q0 -14 -1.5 -29t-4.5 -29l-59 -295h-164l56 280q3 13 3 26q0 31 -18 50.5t-54 19.5q-35 0 -57 -21.5t-30 -60.5z" />
    <glyph glyph-name="i" unicode="i" horiz-adv-x="294" 
d="M20 0l100 504h164l-100 -504h-164zM327 662q0 -20 -7.5 -38t-21 -32t-32 -22.5t-40.5 -8.5q-36 0 -62 23t-26 61q0 19 7 37t20 32t32.5 23t43.5 9q35 0 60.5 -22.5t25.5 -61.5z" />
    <glyph glyph-name="j" unicode="j" horiz-adv-x="284" 
d="M280 504l-114 -569q-14 -72 -54 -113.5t-115 -41.5q-11 0 -25 1.5t-28 4.5t-27.5 6.5t-23.5 7.5l24 126q8 -4 19 -7t23 -3q21 0 32 10.5t16 33.5l109 544h164zM323 662q0 -20 -7.5 -38t-21 -32t-32 -22.5t-40.5 -8.5q-36 0 -62 23t-26 61q0 19 7 37t20 32t32.5 23t43.5 9
q35 0 60.5 -22.5t25.5 -61.5z" />
    <glyph glyph-name="k" unicode="k" horiz-adv-x="589" 
d="M15 0l146 730h164l-93 -466l186 240h197l-216 -261l125 -243h-182l-115 240l-48 -240h-164z" />
    <glyph glyph-name="l" unicode="l" horiz-adv-x="284" 
d="M15 0l146 730h164l-146 -730h-164z" />
    <glyph glyph-name="m" unicode="m" horiz-adv-x="909" 
d="M179 0h-164l101 504h157l-14 -72q20 37 55 60.5t84 23.5q57 0 93.5 -24t53.5 -66q30 42 69 66t99 24q80 0 120.5 -45.5t40.5 -117.5q0 -28 -6 -58l-59 -295h-164l56 280q3 12 3 26q0 32 -17.5 51t-51.5 19q-32 0 -53 -22t-29 -58l-59 -296h-164l56 280q3 15 3 26
q0 32 -17.5 51t-51.5 19q-67 0 -82 -80z" />
    <glyph glyph-name="n" unicode="n" horiz-adv-x="602" 
d="M179 0h-164l101 504h157l-14 -72q20 37 56.5 60.5t87.5 23.5q82 0 123 -45.5t41 -117.5q0 -28 -6 -58l-59 -295h-164l56 280q3 13 3 25q0 31 -18 51t-54 20q-35 0 -57 -21.5t-30 -60.5z" />
    <glyph glyph-name="o" unicode="o" horiz-adv-x="616" 
d="M330 516q54 0 102.5 -16.5t84.5 -47t57 -75t21 -100.5q0 -59 -22.5 -111.5t-62.5 -92t-94 -62.5t-117 -23q-57 0 -105.5 17t-84 48.5t-55.5 76t-20 98.5q0 64 22 117t61.5 91t93.5 59t119 21zM325 382q-60 0 -96.5 -39.5t-36.5 -105.5q0 -53 30.5 -84t81.5 -31
q31 0 55.5 11.5t41.5 31.5t26.5 46.5t9.5 56.5q0 22 -7.5 43t-21.5 36.5t-35 25t-48 9.5z" />
    <glyph glyph-name="p" unicode="p" 
d="M276 504l-14 -73q18 35 59.5 60t93.5 25q50 0 91 -18t70.5 -49.5t45.5 -74.5t16 -92q0 -61 -20.5 -114.5t-57 -93.5t-87.5 -63t-111 -23q-33 0 -60 8.5t-48 22t-35.5 30.5t-21.5 34l-60 -292h-164l143 713h160zM341 123q31 0 56 12t42 32.5t26 46.5t9 54q0 51 -29 82
t-81 31q-31 0 -55.5 -11.5t-42 -32t-26.5 -47t-9 -56.5q0 -52 31 -81.5t79 -29.5z" />
    <glyph glyph-name="q" unicode="q" 
d="M654 504l-142 -713h-164l57 282q-18 -35 -58.5 -60t-92.5 -25q-50 0 -91 18t-70.5 49.5t-45.5 74.5t-16 92q0 61 20.5 114.5t57 93.5t87.5 63t111 23q33 0 61 -8.5t50.5 -22t37.5 -30t23 -33.5l17 82h158zM328 381q-32 0 -56.5 -12t-41.5 -32.5t-26 -46.5t-9 -54
q0 -51 30 -82t80 -31q31 0 55.5 11.5t41.5 32t26.5 47t9.5 56.5q0 52 -31 81.5t-79 29.5z" />
    <glyph glyph-name="r" unicode="r" horiz-adv-x="393" 
d="M409 345q-12 3 -27 4.5t-29 1.5q-57 0 -87 -33t-44 -103l-43 -215h-164l101 504h158l-19 -95q14 51 50.5 78t84.5 27q15 0 28.5 -2.5t22.5 -6.5z" />
    <glyph glyph-name="s" unicode="s" horiz-adv-x="465" 
d="M149 165q-2 -32 14.5 -49.5t51.5 -17.5q24 0 43.5 12t19.5 39q0 24 -32 37l-68 26q-59 23 -85.5 55.5t-26.5 77.5q0 40 14.5 71.5t40.5 53.5t62 34t78 12q39 0 71.5 -10t56 -30.5t36.5 -51t13 -71.5h-134q2 21 -7.5 37t-35.5 16q-19 0 -32 -10.5t-13 -30.5q0 -25 31 -37
l87 -34q95 -37 95 -121q0 -42 -18 -76t-48 -58t-69.5 -37.5t-82.5 -13.5q-40 0 -76.5 10t-64 32t-42.5 55t-12 80h133z" />
    <glyph glyph-name="t" unicode="t" horiz-adv-x="391" 
d="M287 124q13 0 29.5 2t28.5 6l-26 -129q-18 -6 -45.5 -10.5t-56.5 -4.5q-72 0 -107.5 38t-35.5 96q0 19 5 44l40 203h-83l27 135h84l30 151h164l-30 -151h110l-27 -135h-110l-38 -189q-2 -10 -2 -20q0 -17 10 -26.5t33 -9.5z" />
    <glyph glyph-name="u" unicode="u" horiz-adv-x="597" 
d="M429 504h164l-101 -504h-157l14 72q-20 -35 -56.5 -59.5t-87.5 -24.5q-79 0 -119 45.5t-40 117.5q0 16 1.5 29.5t4.5 29.5l59 294h164l-56 -279q-3 -15 -3 -28q0 -32 16.5 -51.5t50.5 -19.5q35 0 57 22.5t30 61.5z" />
    <glyph glyph-name="v" unicode="v" horiz-adv-x="551" 
d="M432 504h174l-295 -504h-152l-105 504h160l52 -327z" />
    <glyph glyph-name="w" unicode="w" horiz-adv-x="827" 
d="M584 194l137 310h161l-255 -504h-137l-54 319l-180 -319h-140l-62 504h158l20 -309l168 309h137z" />
    <glyph glyph-name="x" unicode="x" horiz-adv-x="550" 
d="M367 249l132 -249h-161l-71 140l-117 -140h-180l230 263l-126 241h159l68 -136l109 136h179z" />
    <glyph glyph-name="y" unicode="y" horiz-adv-x="554" 
d="M433 504h174l-297 -504l-118 -208h-173l133 237l-95 475h166l48 -310z" />
    <glyph glyph-name="z" unicode="z" horiz-adv-x="490" 
d="M-17 0v5l263 372h-181l25 127h425l-1 -5l-261 -370h194l-25 -129h-439z" />
    <glyph glyph-name="braceleft" unicode="{" horiz-adv-x="443" 
d="M97 393q42 0 63 17t29 57l25 124q10 51 27.5 87t44.5 59t65.5 34t89.5 11h91l-28 -138h-51q-34 0 -51.5 -12.5t-25.5 -50.5l-26 -131q-12 -60 -41.5 -93.5t-91.5 -38.5q81 -23 81 -108q0 -21 -4 -40l-18 -90q-3 -15 -3 -28q0 -26 14.5 -37t43.5 -11h45l-27 -138h-69
q-85 0 -130 40t-45 112q0 12 1 24.5t4 26.5l21 107q2 7 2 12v9q0 58 -65 58h-43l28 138h44z" />
    <glyph glyph-name="bar" unicode="|" horiz-adv-x="352" 
d="M35 -150l189 950h132l-189 -950h-132z" />
    <glyph glyph-name="braceright" unicode="}" horiz-adv-x="443" 
d="M380 255q-41 0 -61 -19t-28 -60l-25 -125q-11 -52 -28 -87.5t-44 -57t-65 -31t-89 -9.5h-91l28 138h51q34 0 51 12t25 49l27 135q12 59 42.5 91.5t91.5 41.5q-38 13 -60 42.5t-22 71.5q0 8 1 17.5t3 16.5l18 90q3 15 3 27q0 26 -14.5 36t-43.5 10h-45l27 138h69
q81 0 128 -43t47 -116q0 -23 -5 -48l-21 -104q-2 -8 -2 -13v-9q0 -56 65 -56h43l-28 -138h-48z" />
    <glyph glyph-name="asciitilde" unicode="~" horiz-adv-x="667" 
d="M662 425q-11 -40 -27.5 -73.5t-39.5 -58t-53 -38.5t-68 -14q-34 0 -62.5 11t-53.5 24.5t-47.5 24.5t-44.5 11q-16 0 -26.5 -5t-18 -14.5t-13 -22.5t-11.5 -29l-137 37q12 47 29.5 84.5t42 63.5t57.5 40t77 14q30 0 59 -11t55 -24.5t48.5 -24.5t39.5 -11q27 0 39.5 19
t22.5 45z" />
    <glyph glyph-name="nonbreakingspace" unicode="&#xa0;" horiz-adv-x="240" 
 />
    <glyph glyph-name="exclamdown" unicode="&#xa1;" horiz-adv-x="316" 
d="M115 261h100l-45 -465h-196zM284 421q0 -22 -7.5 -41.5t-21 -34.5t-33 -23.5t-42.5 -8.5q-38 0 -64.5 23t-26.5 63q0 21 7.5 40t21.5 34t33.5 24t42.5 9q38 0 64 -23t26 -62z" />
    <glyph glyph-name="cent" unicode="&#xa2;" horiz-adv-x="579" 
d="M72 325q0 48 15.5 90t43 75.5t66 56.5t85.5 31l23 122h166l-27 -141q50 -23 83 -67t39 -109h-141q-6 32 -30 56t-66 24q-27 0 -48 -10.5t-35.5 -28.5t-22 -42.5t-7.5 -52.5q0 -39 24 -65.5t72 -26.5q37 0 61 17.5t38 40.5h144q-22 -63 -70.5 -109.5t-121.5 -62.5
l-24 -123h-166l26 136q-57 23 -92 71.5t-35 117.5z" />
    <glyph glyph-name="sterling" unicode="&#xa3;" horiz-adv-x="631" 
d="M71 390h74l45 142q29 90 89.5 136t147.5 46q49 0 88.5 -12.5t67.5 -37t43.5 -62t15.5 -87.5q0 -7 -0.5 -15.5t-1.5 -13.5h-151q2 8 2 19q0 30 -14.5 50t-49.5 20q-29 0 -47 -15.5t-29 -50.5l-37 -119h190l-27 -135h-204l-36 -120h301l-26 -135h-489l1 10l78 245h-58z" />
    <glyph glyph-name="currency" unicode="&#xa4;" horiz-adv-x="702" 
d="M384 564q54 0 94 -17l71 74h177l-148 -155q10 -18 15.5 -39.5t5.5 -45.5q0 -89 -59 -151l88 -131h-165l-45 63q-12 -2 -24.5 -3t-25.5 -1q-46 0 -85 13l-68 -72h-186l146 156q-21 37 -21 87q0 42 13.5 78.5t38.5 65.5l-92 135h171l40 -64q10 3 26.5 5t32.5 2zM280 352
q0 -38 24 -62t65 -24q45 0 74 30.5t29 75.5q0 37 -23.5 61t-64.5 24q-48 0 -76 -31t-28 -74z" />
    <glyph glyph-name="yen" unicode="&#xa5;" horiz-adv-x="563" 
d="M488 125h-141l-25 -125h-166l25 125h-143l25 123h142l4 18l-12 52h-120l25 124h67l-58 258h171l40 -276l137 276h182l-158 -258h69l-25 -124h-119l-34 -56l-3 -14h142z" />
    <glyph glyph-name="brokenbar" unicode="&#xa6;" horiz-adv-x="352" 
d="M146 410l78 390h132l-78 -390h-132zM244 240l-77 -390h-132l77 390h132z" />
    <glyph glyph-name="section" unicode="&#xa7;" horiz-adv-x="549" 
d="M60 298q0 30 8.5 55t23.5 44.5t34.5 33.5t41.5 24q-24 36 -24 78q0 41 15.5 74.5t43.5 57t66 36.5t83 13q37 0 70.5 -10.5t58 -31.5t39 -52t14.5 -72v-9q0 -5 -1 -10h-134q3 32 -10 52.5t-44 20.5q-25 0 -41.5 -15t-16.5 -41q0 -23 20 -39.5t67 -39.5q34 -18 62.5 -35
t48.5 -37t31 -44t11 -54q0 -51 -27 -95t-73 -74q17 -29 17 -62q0 -40 -17.5 -74t-46.5 -59t-67 -39.5t-79 -14.5q-44 0 -80 13t-61 37t-37.5 58.5t-9.5 77.5h135v-11q0 -28 12.5 -45.5t47.5 -17.5q24 0 41 14.5t17 40.5q0 19 -18.5 33.5t-64.5 40.5q-36 20 -65 39.5
t-49 40.5t-31 44.5t-11 53.5zM300 233q13 -8 25.5 -15t22.5 -14q14 11 24 26.5t10 38.5q0 12 -4.5 21.5t-15 19t-28 20.5t-44.5 25q-13 7 -25 13.5t-23 14.5q-11 -8 -23.5 -24t-12.5 -35q0 -12 3 -21.5t13 -19.5t28.5 -22t49.5 -28z" />
    <glyph glyph-name="dieresis" unicode="&#xa8;" horiz-adv-x="510" 
d="M143 638q0 35 25 61.5t67 26.5q35 0 57.5 -21t22.5 -53q0 -18 -7 -34t-19.5 -28t-29.5 -19t-36 -7q-32 0 -56 19.5t-24 54.5zM362 638q0 35 25 61.5t67 26.5q35 0 57.5 -21t22.5 -53q0 -18 -7 -34t-19.5 -28t-29.5 -19t-36 -7q-32 0 -56 19.5t-24 54.5z" />
    <glyph glyph-name="copyright" unicode="&#xa9;" horiz-adv-x="794" 
d="M55 350q0 75 27 141t75.5 115.5t116 78.5t148.5 29q82 0 149.5 -29t116 -78.5t75 -115.5t26.5 -141t-26.5 -141.5t-75 -116t-116 -78t-149.5 -28.5q-81 0 -148.5 28.5t-116 78t-75.5 116t-27 141.5zM741 350q0 63 -22.5 121.5t-63.5 103t-100.5 71.5t-132.5 27t-132 -27
t-100.5 -71.5t-64 -103t-22.5 -121.5t22.5 -121.5t64 -103t100.5 -71.5t132 -27t132.5 27t100.5 71.5t63.5 103t22.5 121.5zM518 399q-10 21 -32 37.5t-56 16.5q-49 0 -74.5 -29.5t-25.5 -73.5t25.5 -73.5t74.5 -29.5q34 0 56 16.5t32 37.5h89q-6 -26 -21 -50t-38 -42.5
t-52.5 -29.5t-65.5 -11q-46 0 -81.5 14t-59.5 39t-36.5 58t-12.5 71t12.5 71t36.5 58t59.5 39t81.5 14q36 0 65.5 -11t52.5 -29.5t38 -42.5t21 -50h-89z" />
    <glyph glyph-name="ordfeminine" unicode="&#xaa;" horiz-adv-x="498" 
d="M78 311h384l-20 -98h-384zM297 710q45 0 73 -16t42 -43l10 51h110l-67 -334h-107l9 49q-11 -22 -38 -39.5t-65 -17.5q-33 0 -61 11.5t-48.5 32t-32 48.5t-11.5 61q0 39 13.5 74.5t37.5 63t58.5 43.5t76.5 16zM223 522q0 -32 20 -50.5t55 -18.5q38 0 62.5 27t24.5 64
q0 33 -21.5 53t-53.5 20q-20 0 -36 -7.5t-27 -20.5t-17.5 -30.5t-6.5 -36.5z" />
    <glyph glyph-name="guillemotleft" unicode="&#xab;" horiz-adv-x="753" 
d="M235 247l123 -207h-197l-130 219l215 217h200zM547 247l123 -207h-197l-130 219l215 217h200z" />
    <glyph glyph-name="registered" unicode="&#xae;" horiz-adv-x="508" 
d="M85 494q0 44 15 83.5t44 69.5t70.5 47.5t94.5 17.5t94.5 -17.5t70.5 -47.5t44 -69.5t15 -83.5q0 -43 -15 -82.5t-44 -69.5t-70.5 -48t-94.5 -18t-94.5 18t-70.5 48t-44 69.5t-15 82.5zM126 494q0 -38 13 -71.5t37 -58.5t58 -39t75 -14t75 14t58 39t37 58.5t13 71.5
q0 39 -13 72t-37 58t-58 39t-75 14t-75 -14t-58 -39t-37 -58t-13 -72zM393 527q0 -23 -12 -40t-32 -25l52 -56h-60l-46 51h-10v-51h-50v191h85q32 0 52.5 -20.5t20.5 -49.5zM312 497q14 0 23.5 8t9.5 22t-9.5 22t-23.5 8h-27v-60h27z" />
    <glyph glyph-name="macron" unicode="&#xaf;" horiz-adv-x="483" 
d="M129 574l26 128h363l-26 -128h-363z" />
    <glyph glyph-name="degree" unicode="&#xb0;" horiz-adv-x="412" 
d="M282 710q29 0 55 -9t46 -26t32 -41t12 -55q0 -33 -12.5 -62t-35 -50.5t-52.5 -34t-64 -12.5q-29 0 -55 9t-45.5 26t-31 41.5t-11.5 54.5q0 32 12 61t33 50.5t51 34.5t66 13zM351 575q0 27 -18 48.5t-53 21.5q-37 0 -60.5 -25t-23.5 -63q0 -33 19 -52.5t54 -19.5
q18 0 33 7.5t26 19.5t17 28.5t6 34.5z" />
    <glyph glyph-name="plusminus" unicode="&#xb1;" horiz-adv-x="601" 
d="M48 138h156l30 151h-157l29 142h157l35 175h158l-35 -175h155l-29 -142h-155l-30 -151h156l-27 -138h-470z" />
    <glyph glyph-name="twosuperior" unicode="&#xb2;" horiz-adv-x="382" 
d="M300 671q13 13 22.5 23.5t9.5 26.5q0 31 -36 31q-19 0 -30 -11t-14 -30h-110q13 59 52 95.5t106 36.5q30 0 56.5 -7t46 -21.5t31 -36.5t11.5 -52q0 -38 -17 -66.5t-47 -53.5l-69 -57h98l-19 -94h-310v4z" />
    <glyph glyph-name="threesuperior" unicode="&#xb3;" horiz-adv-x="370" 
d="M323 689q40 -7 61.5 -34t21.5 -64q0 -29 -11 -55t-31.5 -45.5t-50 -30.5t-66.5 -11q-63 0 -100.5 33.5t-40.5 98.5h97q3 -23 17 -33t34 -10t36 12.5t16 35.5q0 15 -11 25.5t-31 10.5h-106v7l96 115h-102l19 93h273v-4z" />
    <glyph glyph-name="acute" unicode="&#xb4;" horiz-adv-x="411" 
d="M121 564l102 156h226l-158 -156h-170z" />
    <glyph glyph-name="paragraph" unicode="&#xb6;" horiz-adv-x="693" 
d="M297 173q-45 10 -85 30t-69 50t-46 68.5t-17 84.5q0 66 22.5 120.5t64 93t101 59.5t134.5 21h316l-175 -874h-103l155 778h-108l-156 -778h-103z" />
    <glyph glyph-name="periodcentered" unicode="&#xb7;" horiz-adv-x="284" 
d="M49 258q0 22 7.5 41.5t21 34.5t33 23.5t42.5 8.5q38 0 64.5 -23t26.5 -63q0 -21 -7.5 -40t-21.5 -34t-33.5 -24t-42.5 -9q-38 0 -64 23t-26 62z" />
    <glyph glyph-name="cedilla" unicode="&#xb8;" horiz-adv-x="309" 
d="M177 -118q0 -42 -31 -72t-85 -30q-22 0 -46.5 5t-44.5 14l18 69q29 -13 56 -13q29 0 29 22q0 19 -28 22l-41 5l43 96h81l-23 -47q31 -4 51.5 -21.5t20.5 -49.5z" />
    <glyph glyph-name="onesuperior" unicode="&#xb9;" horiz-adv-x="311" 
d="M362 841h2l-78 -386h-115l51 253l-90 -19l22 107z" />
    <glyph glyph-name="ordmasculine" unicode="&#xba;" horiz-adv-x="480" 
d="M74 311h369l-20 -98h-369zM312 710q35 0 67 -10.5t56.5 -31.5t39 -51t14.5 -69q0 -38 -15 -72t-41.5 -59.5t-63 -41t-78.5 -15.5q-37 0 -69.5 10.5t-56.5 31t-38 50.5t-14 68t14.5 72.5t40.5 60.5t62.5 41.5t81.5 15.5zM219 523q0 -32 20.5 -51.5t54.5 -19.5q39 0 64 28
t25 67q0 34 -22 52.5t-55 18.5q-42 0 -64.5 -28.5t-22.5 -66.5z" />
    <glyph glyph-name="guillemotright" unicode="&#xbb;" horiz-adv-x="753" 
d="M222 264l-127 212h197l130 -219l-215 -217h-200zM534 264l-127 212h197l130 -219l-215 -217h-200z" />
    <glyph glyph-name="onequarter" unicode="&#xbc;" horiz-adv-x="896" 
d="M673 72h-231v4l202 304h111l-140 -222h75l15 74h110l-15 -74h47l-17 -86h-47l-14 -72h-110zM329 705h2l-77 -386h-115l51 253l-90 -19l21 107zM641 700h148l-558 -700h-148z" />
    <glyph glyph-name="onehalf" unicode="&#xbd;" horiz-adv-x="861" 
d="M329 705h2l-77 -386h-115l51 253l-90 -19l21 107zM641 700h148l-558 -700h-148zM688 216q13 13 22.5 23.5t9.5 26.5q0 31 -36 31q-19 0 -30 -11t-14 -30h-110q13 59 52 95.5t106 36.5q30 0 56.5 -7t46 -21.5t31 -36.5t11.5 -52q0 -38 -17 -66.5t-47 -53.5l-69 -57h98
l-19 -94h-310v4z" />
    <glyph glyph-name="threequarters" unicode="&#xbe;" horiz-adv-x="930" 
d="M707 72h-231v4l202 304h111l-140 -222h75l15 74h110l-15 -74h47l-17 -86h-47l-14 -72h-110zM679 700h148l-558 -700h-148zM295 552q40 -7 61.5 -34t21.5 -64q0 -29 -11 -55t-31.5 -45.5t-50 -30.5t-66.5 -11q-63 0 -100.5 33.5t-40.5 98.5h97q3 -23 17 -33t34 -10
t36 12.5t16 35.5q0 15 -11 25.5t-31 10.5h-106v7l96 115h-102l19 93h273v-4z" />
    <glyph glyph-name="questiondown" unicode="&#xbf;" horiz-adv-x="512" 
d="M365 270l-8 -45q-5 -27 -13.5 -46.5t-21 -36t-31 -31.5t-43.5 -33q-12 -9 -28 -18.5t-30 -22t-23.5 -27.5t-9.5 -34q0 -26 16.5 -39t41.5 -13q31 0 49.5 19.5t23.5 48.5h161q-18 -102 -82 -157t-169 -55q-42 0 -79 13t-65 37.5t-44.5 59t-16.5 77.5q0 65 35.5 113.5
t103.5 95.5q14 10 25.5 17.5t20.5 16t15.5 19.5t9.5 26l3 15h159zM397 419q0 -22 -7.5 -41.5t-21 -34.5t-33 -23.5t-42.5 -8.5q-38 0 -64.5 23t-26.5 63q0 21 7.5 40t21.5 34t33.5 24t42.5 9q38 0 64 -23t26 -62z" />
    <glyph glyph-name="Agrave" unicode="&#xc0;" horiz-adv-x="766" 
d="M509 99h-291l-56 -99h-187l438 700h128l160 -700h-176zM296 238h191l-42 264zM401 746l-89 136h214l35 -136h-160z" />
    <glyph glyph-name="Aacute" unicode="&#xc1;" horiz-adv-x="766" 
d="M509 99h-291l-56 -99h-187l438 700h128l160 -700h-176zM296 238h191l-42 264zM407 746l89 136h218l-143 -136h-164z" />
    <glyph glyph-name="Acircumflex" unicode="&#xc2;" horiz-adv-x="766" 
d="M509 99h-291l-56 -99h-187l438 700h128l160 -700h-176zM296 238h191l-42 264zM680 746h-151l-34 47l-49 -47h-158l162 136h122z" />
    <glyph glyph-name="Atilde" unicode="&#xc3;" horiz-adv-x="766" 
d="M509 99h-291l-56 -99h-187l438 700h128l160 -700h-176zM296 238h191l-42 264zM586 748q-21 0 -42 5t-41 11.5t-40 11.5t-41 5q-18 0 -26 -10.5t-17 -30.5l-117 36q10 31 22 55.5t28 41.5t38 26t53 9q24 0 46.5 -5t42.5 -11.5t36.5 -11.5t28.5 -5q20 0 30 13t16 29
l120 -39q-20 -60 -49 -95t-88 -35z" />
    <glyph glyph-name="Adieresis" unicode="&#xc4;" horiz-adv-x="766" 
d="M509 99h-291l-56 -99h-187l438 700h128l160 -700h-176zM296 238h191l-42 264zM289 820q0 35 25 61.5t67 26.5q35 0 57.5 -21t22.5 -53q0 -18 -7 -34t-19.5 -28t-29.5 -19t-36 -7q-32 0 -56 19.5t-24 54.5zM522 820q0 35 25 61.5t67 26.5q35 0 57.5 -21t22.5 -53
q0 -18 -7 -34t-19.5 -28t-29.5 -19t-36 -7q-32 0 -56 19.5t-24 54.5z" />
    <glyph glyph-name="Aring" unicode="&#xc5;" horiz-adv-x="766" 
d="M595 748q0 -26 -12.5 -48t-33.5 -36l152 -664h-176l-16 99h-291l-56 -99h-187l422 674q-22 25 -22 59q0 22 8.5 41.5t24 34.5t36.5 23.5t46 8.5q42 0 73.5 -23.5t31.5 -69.5zM296 238h191l-42 264zM488 783q-19 0 -32.5 -13t-13.5 -33q0 -17 11 -27t31 -10t32 13.5
t12 33.5q0 15 -10 25.5t-30 10.5z" />
    <glyph glyph-name="AE" unicode="&#xc6;" horiz-adv-x="1080" 
d="M1014 148l-29 -148h-490l23 115h-266l-106 -115h-190l657 700h507l-29 -148h-316l-25 -123h307l-29 -148h-307l-27 -133h320zM544 247l50 247l-221 -247h171z" />
    <glyph glyph-name="Ccedilla" unicode="&#xc7;" horiz-adv-x="816" 
d="M462 -118q0 -42 -31 -72t-85 -30q-22 0 -46.5 5t-44.5 14l18 69q29 -13 56 -13q29 0 29 22q0 19 -28 22l-41 5l40 90q-60 12 -109.5 41t-85 70.5t-55 94.5t-19.5 113q0 86 30.5 159.5t84.5 127.5t127.5 84.5t158.5 30.5q64 0 121.5 -19t103 -55t76 -89t41.5 -121h-166
q-8 29 -24 54.5t-39 44t-53.5 29t-68.5 10.5q-49 0 -90 -19.5t-70 -53.5t-45.5 -79t-16.5 -97q0 -42 12.5 -76.5t37 -59t60 -38.5t81.5 -14q34 0 62.5 8.5t50 22.5t37.5 31.5t27 36.5h173q-15 -50 -48 -94t-80 -78t-106 -53.5t-128 -19.5h-3l-16 -33q31 -4 51.5 -21.5
t20.5 -49.5z" />
    <glyph glyph-name="Egrave" unicode="&#xc8;" horiz-adv-x="610" 
d="M544 148l-29 -148h-490l139 700h486l-29 -148h-316l-25 -123h307l-29 -148h-307l-27 -133h320zM347 746l-89 136h214l35 -136h-160z" />
    <glyph glyph-name="Eacute" unicode="&#xc9;" horiz-adv-x="610" 
d="M544 148l-29 -148h-490l139 700h486l-29 -148h-316l-25 -123h307l-29 -148h-307l-27 -133h320zM320 746l89 136h218l-143 -136h-164z" />
    <glyph glyph-name="Ecircumflex" unicode="&#xca;" horiz-adv-x="610" 
d="M544 148l-29 -148h-490l139 700h486l-29 -148h-316l-25 -123h307l-29 -148h-307l-27 -133h320zM615 746h-151l-34 47l-49 -47h-158l162 136h122z" />
    <glyph glyph-name="Edieresis" unicode="&#xcb;" horiz-adv-x="610" 
d="M544 148l-29 -148h-490l139 700h486l-29 -148h-316l-25 -123h307l-29 -148h-307l-27 -133h320zM228 820q0 35 25 61.5t67 26.5q35 0 57.5 -21t22.5 -53q0 -18 -7 -34t-19.5 -28t-29.5 -19t-36 -7q-32 0 -56 19.5t-24 54.5zM461 820q0 35 25 61.5t67 26.5q35 0 57.5 -21
t22.5 -53q0 -18 -7 -34t-19.5 -28t-29.5 -19t-36 -7q-32 0 -56 19.5t-24 54.5z" />
    <glyph glyph-name="Igrave" unicode="&#xcc;" horiz-adv-x="320" 
d="M30 0l140 700h170l-140 -700h-170zM179 746l-89 136h214l35 -136h-160z" />
    <glyph glyph-name="Iacute" unicode="&#xcd;" horiz-adv-x="320" 
d="M30 0l140 700h170l-140 -700h-170zM182 746l89 136h218l-143 -136h-164z" />
    <glyph glyph-name="Icircumflex" unicode="&#xce;" horiz-adv-x="320" 
d="M30 0l140 700h170l-140 -700h-170zM464 746h-151l-34 47l-49 -47h-158l162 136h122z" />
    <glyph glyph-name="Idieresis" unicode="&#xcf;" horiz-adv-x="320" 
d="M30 0l140 700h170l-140 -700h-170zM73 820q0 35 25 61.5t67 26.5q35 0 57.5 -21t22.5 -53q0 -18 -7 -34t-19.5 -28t-29.5 -19t-36 -7q-32 0 -56 19.5t-24 54.5zM306 820q0 35 25 61.5t67 26.5q35 0 57.5 -21t22.5 -53q0 -18 -7 -34t-19.5 -28t-29.5 -19t-36 -7
q-32 0 -56 19.5t-24 54.5z" />
    <glyph glyph-name="Eth" unicode="&#xd0;" horiz-adv-x="781" 
d="M54 424h82l56 276h236q84 0 148 -24t106.5 -65.5t64.5 -98t22 -121.5q0 -94 -34 -167t-96.5 -122.5t-150 -75.5t-195.5 -26h-241l55 276h-82zM303 143q63 0 117.5 14t94.5 43.5t62.5 75t22.5 107.5q0 80 -54.5 127t-160.5 47h-53l-27 -133h157l-29 -148h-158l-26 -133h54
z" />
    <glyph glyph-name="Ntilde" unicode="&#xd1;" horiz-adv-x="807" 
d="M662 700h169l-139 -700h-147l-264 437l-87 -437h-169l139 700h147l263 -438zM591 748q-21 0 -42 5t-41 11.5t-40 11.5t-41 5q-18 0 -26 -10.5t-17 -30.5l-117 36q10 31 22 55.5t28 41.5t38 26t53 9q24 0 46.5 -5t42.5 -11.5t36.5 -11.5t28.5 -5q20 0 30 13t16 29l120 -39
q-20 -60 -49 -95t-88 -35z" />
    <glyph glyph-name="Ograve" unicode="&#xd2;" horiz-adv-x="821" 
d="M458 714q73 0 137.5 -23t112 -65t75 -101.5t27.5 -132.5q0 -79 -29.5 -152t-82.5 -129.5t-126 -90.5t-161 -34q-73 0 -136.5 23.5t-111 66t-75 102.5t-27.5 134q0 82 29 155t81.5 128t125.5 87t161 32zM231 321q0 -88 50.5 -138.5t136.5 -50.5q52 0 93 21t69.5 56t44 80
t15.5 93q0 38 -13.5 72t-38 59.5t-59 40t-77.5 14.5q-50 0 -91 -20.5t-70 -54.5t-44.5 -78.5t-15.5 -93.5zM396 746l-89 136h214l35 -136h-160z" />
    <glyph glyph-name="Oacute" unicode="&#xd3;" horiz-adv-x="821" 
d="M458 714q73 0 137.5 -23t112 -65t75 -101.5t27.5 -132.5q0 -79 -29.5 -152t-82.5 -129.5t-126 -90.5t-161 -34q-73 0 -136.5 23.5t-111 66t-75 102.5t-27.5 134q0 82 29 155t81.5 128t125.5 87t161 32zM231 321q0 -88 50.5 -138.5t136.5 -50.5q52 0 93 21t69.5 56t44 80
t15.5 93q0 38 -13.5 72t-38 59.5t-59 40t-77.5 14.5q-50 0 -91 -20.5t-70 -54.5t-44.5 -78.5t-15.5 -93.5zM395 746l89 136h218l-143 -136h-164z" />
    <glyph glyph-name="Ocircumflex" unicode="&#xd4;" horiz-adv-x="821" 
d="M458 714q73 0 137.5 -23t112 -65t75 -101.5t27.5 -132.5q0 -79 -29.5 -152t-82.5 -129.5t-126 -90.5t-161 -34q-73 0 -136.5 23.5t-111 66t-75 102.5t-27.5 134q0 82 29 155t81.5 128t125.5 87t161 32zM231 321q0 -88 50.5 -138.5t136.5 -50.5q52 0 93 21t69.5 56t44 80
t15.5 93q0 38 -13.5 72t-38 59.5t-59 40t-77.5 14.5q-50 0 -91 -20.5t-70 -54.5t-44.5 -78.5t-15.5 -93.5zM688 746h-151l-34 47l-49 -47h-158l162 136h122z" />
    <glyph glyph-name="Otilde" unicode="&#xd5;" horiz-adv-x="821" 
d="M458 714q73 0 137.5 -23t112 -65t75 -101.5t27.5 -132.5q0 -79 -29.5 -152t-82.5 -129.5t-126 -90.5t-161 -34q-73 0 -136.5 23.5t-111 66t-75 102.5t-27.5 134q0 82 29 155t81.5 128t125.5 87t161 32zM231 321q0 -88 50.5 -138.5t136.5 -50.5q52 0 93 21t69.5 56t44 80
t15.5 93q0 38 -13.5 72t-38 59.5t-59 40t-77.5 14.5q-50 0 -91 -20.5t-70 -54.5t-44.5 -78.5t-15.5 -93.5zM582 748q-21 0 -42 5t-41 11.5t-40 11.5t-41 5q-18 0 -26 -10.5t-17 -30.5l-117 36q10 31 22 55.5t28 41.5t38 26t53 9q24 0 46.5 -5t42.5 -11.5t36.5 -11.5t28.5 -5
q20 0 30 13t16 29l120 -39q-20 -60 -49 -95t-88 -35z" />
    <glyph glyph-name="Odieresis" unicode="&#xd6;" horiz-adv-x="821" 
d="M458 714q73 0 137.5 -23t112 -65t75 -101.5t27.5 -132.5q0 -79 -29.5 -152t-82.5 -129.5t-126 -90.5t-161 -34q-73 0 -136.5 23.5t-111 66t-75 102.5t-27.5 134q0 82 29 155t81.5 128t125.5 87t161 32zM231 321q0 -88 50.5 -138.5t136.5 -50.5q52 0 93 21t69.5 56t44 80
t15.5 93q0 38 -13.5 72t-38 59.5t-59 40t-77.5 14.5q-50 0 -91 -20.5t-70 -54.5t-44.5 -78.5t-15.5 -93.5zM306 820q0 35 25 61.5t67 26.5q35 0 57.5 -21t22.5 -53q0 -18 -7 -34t-19.5 -28t-29.5 -19t-36 -7q-32 0 -56 19.5t-24 54.5zM539 820q0 35 25 61.5t67 26.5
q35 0 57.5 -21t22.5 -53q0 -18 -7 -34t-19.5 -28t-29.5 -19t-36 -7q-32 0 -56 19.5t-24 54.5z" />
    <glyph glyph-name="multiply" unicode="&#xd7;" horiz-adv-x="576" 
d="M307 259l-148 -130l-92 106l151 132l-108 132l114 92l105 -128l146 128l91 -105l-148 -130l111 -134l-115 -93z" />
    <glyph glyph-name="Oslash" unicode="&#xd8;" horiz-adv-x="821" 
d="M458 714q51 0 97 -11.5t86 -31.5l94 106h158l-159 -179q36 -41 56 -92.5t20 -113.5q0 -79 -29.5 -152t-82.5 -129.5t-126 -90.5t-161 -34q-101 0 -182 43l-94 -106h-158l159 180q-35 41 -55 93.5t-20 115.5q0 82 29 155t81.5 128t125.5 87t161 32zM640 382q0 47 -20 87
l-286 -321q35 -16 84 -16q52 0 93 21t69.5 56t44 80t15.5 93zM231 321q0 -26 5 -50t13 -41l285 321q-15 8 -37 12.5t-45 4.5q-50 0 -91 -20.5t-70 -54.5t-44.5 -78.5t-15.5 -93.5z" />
    <glyph glyph-name="Ugrave" unicode="&#xd9;" horiz-adv-x="751" 
d="M367 -14q-62 0 -116 18t-94 52t-62.5 83t-22.5 111q0 36 7 71l76 379h170l-80 -398q-5 -25 -5 -44q0 -57 33.5 -91t99.5 -34q61 0 98.5 38t49.5 100l86 429h170l-89 -443q-13 -63 -42 -113t-70.5 -85.5t-94.5 -54t-114 -18.5zM408 746l-89 136h214l35 -136h-160z" />
    <glyph glyph-name="Uacute" unicode="&#xda;" horiz-adv-x="751" 
d="M367 -14q-62 0 -116 18t-94 52t-62.5 83t-22.5 111q0 36 7 71l76 379h170l-80 -398q-5 -25 -5 -44q0 -57 33.5 -91t99.5 -34q61 0 98.5 38t49.5 100l86 429h170l-89 -443q-13 -63 -42 -113t-70.5 -85.5t-94.5 -54t-114 -18.5zM374 746l89 136h218l-143 -136h-164z" />
    <glyph glyph-name="Ucircumflex" unicode="&#xdb;" horiz-adv-x="751" 
d="M367 -14q-62 0 -116 18t-94 52t-62.5 83t-22.5 111q0 36 7 71l76 379h170l-80 -398q-5 -25 -5 -44q0 -57 33.5 -91t99.5 -34q61 0 98.5 38t49.5 100l86 429h170l-89 -443q-13 -63 -42 -113t-70.5 -85.5t-94.5 -54t-114 -18.5zM678 746h-151l-34 47l-49 -47h-158l162 136
h122z" />
    <glyph glyph-name="Udieresis" unicode="&#xdc;" horiz-adv-x="751" 
d="M367 -14q-62 0 -116 18t-94 52t-62.5 83t-22.5 111q0 36 7 71l76 379h170l-80 -398q-5 -25 -5 -44q0 -57 33.5 -91t99.5 -34q61 0 98.5 38t49.5 100l86 429h170l-89 -443q-13 -63 -42 -113t-70.5 -85.5t-94.5 -54t-114 -18.5zM287 820q0 35 25 61.5t67 26.5
q35 0 57.5 -21t22.5 -53q0 -18 -7 -34t-19.5 -28t-29.5 -19t-36 -7q-32 0 -56 19.5t-24 54.5zM520 820q0 35 25 61.5t67 26.5q35 0 57.5 -21t22.5 -53q0 -18 -7 -34t-19.5 -28t-29.5 -19t-36 -7q-32 0 -56 19.5t-24 54.5z" />
    <glyph glyph-name="Yacute" unicode="&#xdd;" horiz-adv-x="665" 
d="M422 236l-47 -236h-170l51 255l-154 445h174l95 -298l191 298h191zM339 746l89 136h218l-143 -136h-164z" />
    <glyph glyph-name="Thorn" unicode="&#xde;" horiz-adv-x="688" 
d="M25 0l140 700h170l-18 -90h133q52 0 94 -20t72 -53t46 -76t16 -89q0 -60 -24.5 -111.5t-67 -89t-99 -59t-119.5 -21.5h-155l-18 -91h-170zM288 464l-46 -227h131q27 0 51.5 9t43 25.5t29.5 40t11 51.5q0 41 -25 71t-66 30h-129z" />
    <glyph glyph-name="germandbls" unicode="&#xdf;" horiz-adv-x="636" 
d="M445 532q0 33 -20.5 52.5t-52.5 19.5q-36 0 -58.5 -22.5t-30.5 -60.5l-104 -521h-164l107 536q20 100 90.5 152t171.5 52q45 0 85 -13t70.5 -37.5t48.5 -60t18 -80.5q0 -66 -31.5 -114.5t-91.5 -74.5q55 -14 91 -50t36 -95q0 -62 -25 -103.5t-67 -66t-96 -35t-112 -10.5
h-46l26 128h29q59 0 94.5 21t35.5 69q0 37 -27.5 56.5t-69.5 19.5h-30l26 128q44 12 70.5 40t26.5 70z" />
    <glyph glyph-name="agrave" unicode="&#xe0;" 
d="M654 504l-101 -504h-160l14 73q-18 -35 -59.5 -60t-93.5 -25q-50 0 -91 18t-70.5 49.5t-45.5 74.5t-16 92q0 61 20.5 114.5t57 93.5t87.5 63t111 23q33 0 61 -8.5t50 -22t37 -30t23 -33.5l16 82h160zM328 381q-32 0 -56.5 -12t-41.5 -32.5t-26 -46.5t-9 -54q0 -51 29 -82
t81 -31q31 0 55.5 11.5t41.5 32t26.5 47t9.5 56.5q0 52 -31 81.5t-79 29.5zM314 564l-96 156h211l42 -156h-157z" />
    <glyph glyph-name="aacute" unicode="&#xe1;" 
d="M654 504l-101 -504h-160l14 73q-18 -35 -59.5 -60t-93.5 -25q-50 0 -91 18t-70.5 49.5t-45.5 74.5t-16 92q0 61 20.5 114.5t57 93.5t87.5 63t111 23q33 0 61 -8.5t50 -22t37 -30t23 -33.5l16 82h160zM328 381q-32 0 -56.5 -12t-41.5 -32.5t-26 -46.5t-9 -54q0 -51 29 -82
t81 -31q31 0 55.5 11.5t41.5 32t26.5 47t9.5 56.5q0 52 -31 81.5t-79 29.5zM283 564l102 156h226l-158 -156h-170z" />
    <glyph glyph-name="acircumflex" unicode="&#xe2;" 
d="M654 504l-101 -504h-160l14 73q-18 -35 -59.5 -60t-93.5 -25q-50 0 -91 18t-70.5 49.5t-45.5 74.5t-16 92q0 61 20.5 114.5t57 93.5t87.5 63t111 23q33 0 61 -8.5t50 -22t37 -30t23 -33.5l16 82h160zM328 381q-32 0 -56.5 -12t-41.5 -32.5t-26 -46.5t-9 -54q0 -51 29 -82
t81 -31q31 0 55.5 11.5t41.5 32t26.5 47t9.5 56.5q0 52 -31 81.5t-79 29.5zM591 564h-151l-28 55l-50 -55h-161l165 156h122z" />
    <glyph glyph-name="atilde" unicode="&#xe3;" 
d="M654 504l-101 -504h-160l14 73q-18 -35 -59.5 -60t-93.5 -25q-50 0 -91 18t-70.5 49.5t-45.5 74.5t-16 92q0 61 20.5 114.5t57 93.5t87.5 63t111 23q33 0 61 -8.5t50 -22t37 -30t23 -33.5l16 82h160zM328 381q-32 0 -56.5 -12t-41.5 -32.5t-26 -46.5t-9 -54q0 -51 29 -82
t81 -31q31 0 55.5 11.5t41.5 32t26.5 47t9.5 56.5q0 52 -31 81.5t-79 29.5zM471 568q-20 0 -38 5t-35 11.5t-34.5 11.5t-36.5 5q-18 0 -27.5 -10.5t-17.5 -30.5l-117 36q10 30 21.5 54.5t28 42t39 26.5t53.5 9q22 0 42 -5t37.5 -11.5t32 -11.5t25.5 -5q20 0 29.5 13t16.5 29
l120 -39q-21 -62 -50.5 -96t-88.5 -34z" />
    <glyph glyph-name="adieresis" unicode="&#xe4;" 
d="M654 504l-101 -504h-160l14 73q-18 -35 -59.5 -60t-93.5 -25q-50 0 -91 18t-70.5 49.5t-45.5 74.5t-16 92q0 61 20.5 114.5t57 93.5t87.5 63t111 23q33 0 61 -8.5t50 -22t37 -30t23 -33.5l16 82h160zM328 381q-32 0 -56.5 -12t-41.5 -32.5t-26 -46.5t-9 -54q0 -51 29 -82
t81 -31q31 0 55.5 11.5t41.5 32t26.5 47t9.5 56.5q0 52 -31 81.5t-79 29.5zM206 638q0 35 25 61.5t67 26.5q35 0 57.5 -21t22.5 -53q0 -18 -7 -34t-19.5 -28t-29.5 -19t-36 -7q-32 0 -56 19.5t-24 54.5zM425 638q0 35 25 61.5t67 26.5q35 0 57.5 -21t22.5 -53q0 -18 -7 -34
t-19.5 -28t-29.5 -19t-36 -7q-32 0 -56 19.5t-24 54.5z" />
    <glyph glyph-name="aring" unicode="&#xe5;" 
d="M654 504l-101 -504h-160l14 73q-18 -35 -59.5 -60t-93.5 -25q-50 0 -91 18t-70.5 49.5t-45.5 74.5t-16 92q0 61 20.5 114.5t57 93.5t87.5 63t111 23q33 0 61 -8.5t50 -22t37 -30t23 -33.5l16 82h160zM328 381q-32 0 -56.5 -12t-41.5 -32.5t-26 -46.5t-9 -54q0 -51 29 -82
t81 -31q31 0 55.5 11.5t41.5 32t26.5 47t9.5 56.5q0 52 -31 81.5t-79 29.5zM503 668q0 -22 -9 -41t-25 -33.5t-36.5 -23t-43.5 -8.5q-49 0 -77.5 25.5t-28.5 65.5q0 22 8.5 41.5t24 34.5t36.5 23.5t46 8.5q42 0 73.5 -23.5t31.5 -69.5zM396 703q-19 0 -32.5 -13t-13.5 -33
q0 -17 11 -27t31 -10t32 13.5t12 33.5q0 15 -10 25.5t-30 10.5z" />
    <glyph glyph-name="ae" unicode="&#xe6;" horiz-adv-x="940" 
d="M528 204q2 -45 30.5 -71t79.5 -26q30 0 55.5 11t42.5 29h158q-16 -34 -42 -63t-59.5 -50.5t-74.5 -33.5t-88 -12q-62 0 -114 19t-87 59q-32 -35 -85 -56.5t-114 -21.5q-99 0 -157 42.5t-58 124.5q0 80 50 124t139 44q44 0 92.5 -10.5t80.5 -30.5q4 13 4 29q0 27 -14 43.5
t-36.5 25.5t-50.5 11.5t-56 2.5q-32 0 -62.5 -4t-56.5 -14l24 123q23 10 57 13.5t69 3.5q69 0 123 -16.5t92 -58.5q35 38 83.5 56.5t107.5 18.5q52 0 98 -16t80.5 -46.5t54 -74t19.5 -98.5q0 -15 -2 -37.5t-7 -39.5h-376zM657 403q-48 0 -79.5 -28t-39.5 -76h223
q1 45 -27.5 74.5t-76.5 29.5zM168 152q0 -30 22 -44.5t62 -14.5q42 0 68.5 20.5t34.5 56.5l3 15q-21 11 -53 18t-65 7q-36 0 -54 -15.5t-18 -42.5z" />
    <glyph glyph-name="ccedilla" unicode="&#xe7;" horiz-adv-x="615" 
d="M350 -118q0 -42 -31 -72t-85 -30q-22 0 -46.5 5t-44.5 14l18 69q29 -13 56 -13q29 0 29 22q0 19 -28 22l-41 5l41 93q-40 9 -74.5 28t-59.5 47.5t-39.5 66t-14.5 84.5q0 60 21.5 113.5t60 93.5t93 63t120.5 23q50 0 95 -13t80 -40t58 -68t29 -97h-156q-11 37 -38 59.5
t-71 22.5q-29 0 -52.5 -11.5t-40.5 -31t-26.5 -47t-9.5 -58.5q0 -51 27.5 -79.5t80.5 -28.5q40 0 66.5 17.5t40.5 41.5h163q-15 -43 -42 -78.5t-63 -61.5t-79.5 -40.5t-91.5 -14.5l-17 -35q31 -4 51.5 -21.5t20.5 -49.5z" />
    <glyph glyph-name="egrave" unicode="&#xe8;" horiz-adv-x="598" 
d="M186 204q2 -45 30.5 -71t79.5 -26q30 0 55.5 11t42.5 29h158q-16 -34 -42 -63t-59.5 -50.5t-74.5 -33.5t-88 -12q-55 0 -102 15.5t-81.5 45.5t-54.5 73t-20 97q0 62 20 116.5t57.5 94.5t91 63t120.5 23q52 0 98 -16t80.5 -46.5t54 -74t19.5 -98.5q0 -15 -2 -37.5
t-7 -39.5h-376zM315 403q-48 0 -79.5 -28t-39.5 -76h223q1 45 -27.5 74.5t-76.5 29.5zM265 564l-96 156h211l42 -156h-157z" />
    <glyph glyph-name="eacute" unicode="&#xe9;" horiz-adv-x="598" 
d="M186 204q2 -45 30.5 -71t79.5 -26q30 0 55.5 11t42.5 29h158q-16 -34 -42 -63t-59.5 -50.5t-74.5 -33.5t-88 -12q-55 0 -102 15.5t-81.5 45.5t-54.5 73t-20 97q0 62 20 116.5t57.5 94.5t91 63t120.5 23q52 0 98 -16t80.5 -46.5t54 -74t19.5 -98.5q0 -15 -2 -37.5
t-7 -39.5h-376zM315 403q-48 0 -79.5 -28t-39.5 -76h223q1 45 -27.5 74.5t-76.5 29.5zM266 564l102 156h226l-158 -156h-170z" />
    <glyph glyph-name="ecircumflex" unicode="&#xea;" horiz-adv-x="598" 
d="M186 204q2 -45 30.5 -71t79.5 -26q30 0 55.5 11t42.5 29h158q-16 -34 -42 -63t-59.5 -50.5t-74.5 -33.5t-88 -12q-55 0 -102 15.5t-81.5 45.5t-54.5 73t-20 97q0 62 20 116.5t57.5 94.5t91 63t120.5 23q52 0 98 -16t80.5 -46.5t54 -74t19.5 -98.5q0 -15 -2 -37.5
t-7 -39.5h-376zM315 403q-48 0 -79.5 -28t-39.5 -76h223q1 45 -27.5 74.5t-76.5 29.5zM550 564h-151l-28 55l-50 -55h-161l165 156h122z" />
    <glyph glyph-name="edieresis" unicode="&#xeb;" horiz-adv-x="598" 
d="M186 204q2 -45 30.5 -71t79.5 -26q30 0 55.5 11t42.5 29h158q-16 -34 -42 -63t-59.5 -50.5t-74.5 -33.5t-88 -12q-55 0 -102 15.5t-81.5 45.5t-54.5 73t-20 97q0 62 20 116.5t57.5 94.5t91 63t120.5 23q52 0 98 -16t80.5 -46.5t54 -74t19.5 -98.5q0 -15 -2 -37.5
t-7 -39.5h-376zM315 403q-48 0 -79.5 -28t-39.5 -76h223q1 45 -27.5 74.5t-76.5 29.5zM163 638q0 35 25 61.5t67 26.5q35 0 57.5 -21t22.5 -53q0 -18 -7 -34t-19.5 -28t-29.5 -19t-36 -7q-32 0 -56 19.5t-24 54.5zM382 638q0 35 25 61.5t67 26.5q35 0 57.5 -21t22.5 -53
q0 -18 -7 -34t-19.5 -28t-29.5 -19t-36 -7q-32 0 -56 19.5t-24 54.5z" />
    <glyph glyph-name="igrave" unicode="&#xec;" horiz-adv-x="294" 
d="M20 0l100 504h164l-100 -504h-164zM129 564l-96 156h211l42 -156h-157z" />
    <glyph glyph-name="iacute" unicode="&#xed;" horiz-adv-x="294" 
d="M20 0l100 504h164l-100 -504h-164zM126 564l102 156h226l-158 -156h-170z" />
    <glyph glyph-name="icircumflex" unicode="&#xee;" horiz-adv-x="294" 
d="M20 0l100 504h164l-100 -504h-164zM407 564h-151l-28 55l-50 -55h-161l165 156h122z" />
    <glyph glyph-name="idieresis" unicode="&#xef;" horiz-adv-x="294" 
d="M20 0l100 504h164l-100 -504h-164zM36 638q0 35 25 61.5t67 26.5q35 0 57.5 -21t22.5 -53q0 -18 -7 -34t-19.5 -28t-29.5 -19t-36 -7q-32 0 -56 19.5t-24 54.5zM255 638q0 35 25 61.5t67 26.5q35 0 57.5 -21t22.5 -53q0 -18 -7 -34t-19.5 -28t-29.5 -19t-36 -7
q-32 0 -56 19.5t-24 54.5z" />
    <glyph glyph-name="eth" unicode="&#xf0;" horiz-adv-x="614" 
d="M202 625l89 15q-21 21 -45.5 43.5t-50.5 46.5h189q36 -27 72 -61l152 26l15 -107l-86 -15q31 -49 47 -101t16 -118q0 -71 -21 -137t-61 -117t-98 -81.5t-132 -30.5q-54 0 -101 15.5t-81 45.5t-53.5 73t-19.5 97q0 56 18 105.5t51 87t80 59t105 21.5q45 0 87.5 -14.5
t70.5 -48.5q-11 34 -27.5 62.5t-37.5 54.5l-163 -28zM318 364q-32 0 -55 -12t-38.5 -31.5t-23 -45t-7.5 -52.5q0 -50 27.5 -77.5t76.5 -27.5q28 0 51.5 12t39.5 32.5t25 47t9 56.5q0 45 -29 71.5t-76 26.5z" />
    <glyph glyph-name="ntilde" unicode="&#xf1;" horiz-adv-x="602" 
d="M179 0h-164l101 504h157l-14 -72q20 37 56.5 60.5t87.5 23.5q82 0 123 -45.5t41 -117.5q0 -28 -6 -58l-59 -295h-164l56 280q3 13 3 25q0 31 -18 51t-54 20q-35 0 -57 -21.5t-30 -60.5zM455 568q-20 0 -38 5t-35 11.5t-34.5 11.5t-36.5 5q-18 0 -27.5 -10.5t-17.5 -30.5
l-117 36q10 30 21.5 54.5t28 42t39 26.5t53.5 9q22 0 42 -5t37.5 -11.5t32 -11.5t25.5 -5q20 0 29.5 13t16.5 29l120 -39q-21 -62 -50.5 -96t-88.5 -34z" />
    <glyph glyph-name="ograve" unicode="&#xf2;" horiz-adv-x="616" 
d="M330 516q54 0 102.5 -16.5t84.5 -47t57 -75t21 -100.5q0 -59 -22.5 -111.5t-62.5 -92t-94 -62.5t-117 -23q-57 0 -105.5 17t-84 48.5t-55.5 76t-20 98.5q0 64 22 117t61.5 91t93.5 59t119 21zM325 382q-60 0 -96.5 -39.5t-36.5 -105.5q0 -53 30.5 -84t81.5 -31
q31 0 55.5 11.5t41.5 31.5t26.5 46.5t9.5 56.5q0 22 -7.5 43t-21.5 36.5t-35 25t-48 9.5zM262 564l-96 156h211l42 -156h-157z" />
    <glyph glyph-name="oacute" unicode="&#xf3;" horiz-adv-x="616" 
d="M330 516q54 0 102.5 -16.5t84.5 -47t57 -75t21 -100.5q0 -59 -22.5 -111.5t-62.5 -92t-94 -62.5t-117 -23q-57 0 -105.5 17t-84 48.5t-55.5 76t-20 98.5q0 64 22 117t61.5 91t93.5 59t119 21zM325 382q-60 0 -96.5 -39.5t-36.5 -105.5q0 -53 30.5 -84t81.5 -31
q31 0 55.5 11.5t41.5 31.5t26.5 46.5t9.5 56.5q0 22 -7.5 43t-21.5 36.5t-35 25t-48 9.5zM261 564l102 156h226l-158 -156h-170z" />
    <glyph glyph-name="ocircumflex" unicode="&#xf4;" horiz-adv-x="616" 
d="M330 516q54 0 102.5 -16.5t84.5 -47t57 -75t21 -100.5q0 -59 -22.5 -111.5t-62.5 -92t-94 -62.5t-117 -23q-57 0 -105.5 17t-84 48.5t-55.5 76t-20 98.5q0 64 22 117t61.5 91t93.5 59t119 21zM325 382q-60 0 -96.5 -39.5t-36.5 -105.5q0 -53 30.5 -84t81.5 -31
q31 0 55.5 11.5t41.5 31.5t26.5 46.5t9.5 56.5q0 22 -7.5 43t-21.5 36.5t-35 25t-48 9.5zM553 564h-151l-28 55l-50 -55h-161l165 156h122z" />
    <glyph glyph-name="otilde" unicode="&#xf5;" horiz-adv-x="616" 
d="M330 516q54 0 102.5 -16.5t84.5 -47t57 -75t21 -100.5q0 -59 -22.5 -111.5t-62.5 -92t-94 -62.5t-117 -23q-57 0 -105.5 17t-84 48.5t-55.5 76t-20 98.5q0 64 22 117t61.5 91t93.5 59t119 21zM325 382q-60 0 -96.5 -39.5t-36.5 -105.5q0 -53 30.5 -84t81.5 -31
q31 0 55.5 11.5t41.5 31.5t26.5 46.5t9.5 56.5q0 22 -7.5 43t-21.5 36.5t-35 25t-48 9.5zM445 568q-20 0 -38 5t-35 11.5t-34.5 11.5t-36.5 5q-18 0 -27.5 -10.5t-17.5 -30.5l-117 36q10 30 21.5 54.5t28 42t39 26.5t53.5 9q22 0 42 -5t37.5 -11.5t32 -11.5t25.5 -5
q20 0 29.5 13t16.5 29l120 -39q-21 -62 -50.5 -96t-88.5 -34z" />
    <glyph glyph-name="odieresis" unicode="&#xf6;" horiz-adv-x="616" 
d="M330 516q54 0 102.5 -16.5t84.5 -47t57 -75t21 -100.5q0 -59 -22.5 -111.5t-62.5 -92t-94 -62.5t-117 -23q-57 0 -105.5 17t-84 48.5t-55.5 76t-20 98.5q0 64 22 117t61.5 91t93.5 59t119 21zM325 382q-60 0 -96.5 -39.5t-36.5 -105.5q0 -53 30.5 -84t81.5 -31
q31 0 55.5 11.5t41.5 31.5t26.5 46.5t9.5 56.5q0 22 -7.5 43t-21.5 36.5t-35 25t-48 9.5zM172 638q0 35 25 61.5t67 26.5q35 0 57.5 -21t22.5 -53q0 -18 -7 -34t-19.5 -28t-29.5 -19t-36 -7q-32 0 -56 19.5t-24 54.5zM391 638q0 35 25 61.5t67 26.5q35 0 57.5 -21t22.5 -53
q0 -18 -7 -34t-19.5 -28t-29.5 -19t-36 -7q-32 0 -56 19.5t-24 54.5z" />
    <glyph glyph-name="divide" unicode="&#xf7;" horiz-adv-x="595" 
d="M103 431h470l-29 -142h-470zM279 558q0 18 6.5 35t18.5 30.5t29.5 21.5t39.5 8q32 0 55.5 -21t23.5 -56q0 -18 -7 -35t-19.5 -30t-29.5 -21t-37 -8q-34 0 -57 21.5t-23 54.5zM197 143q0 18 6.5 35t18.5 30.5t29.5 21.5t39.5 8q32 0 55.5 -21t23.5 -56q0 -18 -7 -35
t-19.5 -30t-29.5 -21t-37 -8q-34 0 -57 21.5t-23 54.5z" />
    <glyph glyph-name="oslash" unicode="&#xf8;" horiz-adv-x="616" 
d="M330 516q72 0 132 -29l80 94h110l-121 -142q30 -30 47 -70.5t17 -91.5q0 -59 -22.5 -111.5t-62.5 -92t-94 -62.5t-117 -23q-36 0 -68.5 7t-61.5 20l-79 -92h-110l119 140q-31 31 -48 72.5t-17 92.5q0 64 22 117t61.5 91t93.5 59t119 21zM325 382q-60 0 -96.5 -39.5
t-36.5 -105.5q0 -31 10 -54l164 192q-17 7 -41 7zM437 268q0 27 -10 49l-163 -190q9 -3 19 -4t21 -1q31 0 55.5 11.5t41.5 31.5t26.5 46.5t9.5 56.5z" />
    <glyph glyph-name="ugrave" unicode="&#xf9;" horiz-adv-x="597" 
d="M429 504h164l-101 -504h-157l14 72q-20 -35 -56.5 -59.5t-87.5 -24.5q-79 0 -119 45.5t-40 117.5q0 16 1.5 29.5t4.5 29.5l59 294h164l-56 -279q-3 -15 -3 -28q0 -32 16.5 -51.5t50.5 -19.5q35 0 57 22.5t30 61.5zM303 564l-96 156h211l42 -156h-157z" />
    <glyph glyph-name="uacute" unicode="&#xfa;" horiz-adv-x="597" 
d="M429 504h164l-101 -504h-157l14 72q-20 -35 -56.5 -59.5t-87.5 -24.5q-79 0 -119 45.5t-40 117.5q0 16 1.5 29.5t4.5 29.5l59 294h164l-56 -279q-3 -15 -3 -28q0 -32 16.5 -51.5t50.5 -19.5q35 0 57 22.5t30 61.5zM263 564l102 156h226l-158 -156h-170z" />
    <glyph glyph-name="ucircumflex" unicode="&#xfb;" horiz-adv-x="597" 
d="M429 504h164l-101 -504h-157l14 72q-20 -35 -56.5 -59.5t-87.5 -24.5q-79 0 -119 45.5t-40 117.5q0 16 1.5 29.5t4.5 29.5l59 294h164l-56 -279q-3 -15 -3 -28q0 -32 16.5 -51.5t50.5 -19.5q35 0 57 22.5t30 61.5zM562 564h-151l-28 55l-50 -55h-161l165 156h122z" />
    <glyph glyph-name="udieresis" unicode="&#xfc;" horiz-adv-x="597" 
d="M429 504h164l-101 -504h-157l14 72q-20 -35 -56.5 -59.5t-87.5 -24.5q-79 0 -119 45.5t-40 117.5q0 16 1.5 29.5t4.5 29.5l59 294h164l-56 -279q-3 -15 -3 -28q0 -32 16.5 -51.5t50.5 -19.5q35 0 57 22.5t30 61.5zM186 638q0 35 25 61.5t67 26.5q35 0 57.5 -21t22.5 -53
q0 -18 -7 -34t-19.5 -28t-29.5 -19t-36 -7q-32 0 -56 19.5t-24 54.5zM405 638q0 35 25 61.5t67 26.5q35 0 57.5 -21t22.5 -53q0 -18 -7 -34t-19.5 -28t-29.5 -19t-36 -7q-32 0 -56 19.5t-24 54.5z" />
    <glyph glyph-name="yacute" unicode="&#xfd;" horiz-adv-x="554" 
d="M433 504h174l-297 -504l-118 -208h-173l133 237l-95 475h166l48 -310zM238 564l102 156h226l-158 -156h-170z" />
    <glyph glyph-name="thorn" unicode="&#xfe;" 
d="M266 435q22 35 61 58t88 23q50 0 91 -18t70.5 -49.5t45.5 -74.5t16 -92q0 -61 -20.5 -114.5t-57 -93.5t-87.5 -63t-111 -23q-33 0 -60.5 9t-48.5 23.5t-35.5 32t-21.5 34.5l-59 -296h-164l188 939h164zM341 123q31 0 56 12t42 32.5t26 46.5t9 54q0 51 -29 82t-81 31
q-31 0 -55.5 -11.5t-42 -32t-26.5 -47t-9 -56.5q0 -52 31 -81.5t79 -29.5z" />
    <glyph glyph-name="ydieresis" unicode="&#xff;" horiz-adv-x="554" 
d="M433 504h174l-297 -504l-118 -208h-173l133 237l-95 475h166l48 -310zM151 638q0 35 25 61.5t67 26.5q35 0 57.5 -21t22.5 -53q0 -18 -7 -34t-19.5 -28t-29.5 -19t-36 -7q-32 0 -56 19.5t-24 54.5zM370 638q0 35 25 61.5t67 26.5q35 0 57.5 -21t22.5 -53q0 -18 -7 -34
t-19.5 -28t-29.5 -19t-36 -7q-32 0 -56 19.5t-24 54.5z" />
    <glyph glyph-name="OE" unicode="&#x152;" horiz-adv-x="1082" 
d="M1093 552h-316l-25 -123h307l-29 -148h-307l-27 -133h320l-29 -148h-568q-86 0 -152.5 23t-112 65t-69.5 100t-24 128q0 93 33.5 165t94.5 120.5t147 73.5t191 25h595zM230 315q0 -84 55.5 -128t163.5 -44h76l82 414h-80q-145 0 -221 -59t-76 -183z" />
    <glyph glyph-name="oe" unicode="&#x153;" horiz-adv-x="1003" 
d="M591 204q2 -45 30.5 -71t79.5 -26q30 0 55.5 11t42.5 29h158q-16 -34 -42 -63t-59.5 -50.5t-74.5 -33.5t-88 -12q-60 0 -113 21.5t-84 59.5q-13 -17 -35 -32t-48.5 -26t-56 -17t-58.5 -6q-61 0 -109.5 17t-83 48.5t-53 76t-18.5 98.5q0 64 22 117t61.5 91t93.5 59t119 21
q132 0 196 -83q35 40 85.5 61.5t112.5 21.5q52 0 98 -16t80.5 -46.5t54 -74t19.5 -98.5q0 -15 -2 -36.5t-7 -40.5h-376zM325 382q-60 0 -96.5 -39.5t-36.5 -105.5q0 -53 30.5 -84t81.5 -31q31 0 55.5 11.5t41.5 31.5t26.5 46.5t9.5 56.5q0 22 -7.5 43t-21.5 36.5t-35 25
t-48 9.5zM720 403q-48 0 -79.5 -28t-39.5 -76h223q0 22 -7.5 41.5t-21.5 33t-33.5 21.5t-41.5 8z" />
    <glyph glyph-name="tilde" unicode="&#x2dc;" horiz-adv-x="546" 
d="M442 568q-20 0 -38 5t-35 11.5t-34.5 11.5t-36.5 5q-18 0 -27.5 -10.5t-17.5 -30.5l-117 36q10 30 21.5 54.5t28 42t39 26.5t53.5 9q22 0 42 -5t37.5 -11.5t32 -11.5t25.5 -5q20 0 29.5 13t16.5 29l120 -39q-21 -62 -50.5 -96t-88.5 -34z" />
    <glyph glyph-name="endash" unicode="&#x2013;" horiz-adv-x="600" 
d="M47 211l29 146h500l-29 -146h-500z" />
    <glyph glyph-name="emdash" unicode="&#x2014;" horiz-adv-x="937" 
d="M47 211l29 146h837l-29 -146h-837z" />
    <glyph glyph-name="quoteleft" unicode="&#x2018;" horiz-adv-x="329" 
d="M267 413h-199l173 287h147z" />
    <glyph glyph-name="quoteright" unicode="&#x2019;" horiz-adv-x="329" 
d="M193 700h199l-173 -287h-147z" />
    <glyph glyph-name="quotedblleft" unicode="&#x201c;" horiz-adv-x="597" 
d="M535 413h-199l173 287h147zM267 413h-199l173 287h147z" />
    <glyph glyph-name="quotedblright" unicode="&#x201d;" horiz-adv-x="597" 
d="M193 700h199l-173 -287h-147zM461 700h199l-173 -287h-147z" />
    <glyph glyph-name="quotedblbase" unicode="&#x201e;" horiz-adv-x="590" 
d="M67 150h199l-173 -287h-147zM335 150h199l-173 -287h-147z" />
    <glyph glyph-name="bullet" unicode="&#x2022;" horiz-adv-x="402" 
d="M364 334q0 -30 -11.5 -57.5t-31.5 -49t-48 -34.5t-62 -13q-27 0 -52 8t-44 23.5t-30 39t-11 54.5t11.5 59t32 49.5t49 34t62.5 12.5q28 0 52.5 -8.5t43 -25t29 -39.5t10.5 -53z" />
    <glyph glyph-name="ellipsis" unicode="&#x2026;" horiz-adv-x="852" 
d="M16 75q0 22 7.5 41.5t21 34.5t33 23.5t42.5 8.5q38 0 64.5 -23t26.5 -63q0 -21 -7.5 -40t-21.5 -34t-33.5 -24t-42.5 -9q-38 0 -64 23t-26 62zM300 75q0 22 7.5 41.5t21 34.5t33 23.5t42.5 8.5q38 0 64.5 -23t26.5 -63q0 -21 -7.5 -40t-21.5 -34t-33.5 -24t-42.5 -9
q-38 0 -64 23t-26 62zM584 75q0 22 7.5 41.5t21 34.5t33 23.5t42.5 8.5q38 0 64.5 -23t26.5 -63q0 -21 -7.5 -40t-21.5 -34t-33.5 -24t-42.5 -9q-38 0 -64 23t-26 62z" />
    <glyph glyph-name="guilsinglleft" unicode="&#x2039;" horiz-adv-x="441" 
d="M235 247l123 -207h-197l-130 219l215 217h200z" />
    <glyph glyph-name="guilsinglright" unicode="&#x203a;" horiz-adv-x="441" 
d="M222 264l-127 212h197l130 -219l-215 -217h-200z" />
    <glyph glyph-name="Euro" unicode="&#x20ac;" horiz-adv-x="591" 
d="M627 555q-22 10 -53 15.5t-69 5.5q-57 0 -95.5 -22.5t-64.5 -60.5h220l-23 -110h-238q-2 -16 -4 -32.5t-3 -33.5h232l-22 -110h-198q17 -47 60.5 -66.5t120.5 -19.5q14 0 29 1t25 3l-28 -133q-11 -3 -31.5 -4.5t-39.5 -1.5q-59 0 -109.5 15.5t-90 44t-67 69.5t-39.5 92
h-113l22 110h83q1 17 2.5 33t4.5 33h-77l23 110h87q20 48 51 88.5t72.5 70t94 46t116.5 16.5q42 0 81 -8t67 -22z" />
    </font>
</defs>
</svg>
